/* XPM */
static char *_13cc208c77740e7bf50ecbc70062fe3[] = {
/* columns rows colors chars-per-pixel */
"64 64 225 2 ",
"   c #000203",
".  c #0C0104",
"X  c #01050C",
"o  c #0A030C",
"O  c #01090D",
"+  c #14110E",
"@  c #18140F",
"#  c #010413",
"$  c #000A13",
"%  c #00051C",
"&  c #010C1C",
"*  c #140D11",
"=  c #071218",
"-  c #151312",
";  c #1B1917",
":  c #130F0C",
">  c #000522",
",  c #000C24",
"<  c #000D2B",
"1  c #001325",
"2  c #041922",
"3  c #0A1F29",
"4  c #02172C",
"5  c #001631",
"6  c #092535",
"7  c #11293A",
"8  c #01212D",
"9  c #00284D",
"0  c #02354D",
"q  c #012C54",
"w  c #023956",
"e  c #003759",
"r  c #00395B",
"t  c #063654",
"y  c #1A2E40",
"u  c #003C6B",
"i  c #1F4C5C",
"p  c #254759",
"a  c #294B5E",
"s  c #00426F",
"d  c #004673",
"f  c #155A7B",
"g  c #1B5978",
"h  c #1B426E",
"j  c #2D4F61",
"k  c #295468",
"l  c #26557A",
"z  c #3A5877",
"x  c #35516A",
"c  c #17627C",
"v  c #5D595B",
"b  c #404B57",
"n  c #635757",
"m  c #574F66",
"M  c #5A5B63",
"N  c #59576A",
"B  c #44577A",
"V  c #4C5468",
"C  c #6B5C69",
"Z  c #665B65",
"A  c #506169",
"S  c #1B5A82",
"D  c #1C5781",
"F  c #2A5883",
"G  c #176383",
"H  c #106D97",
"J  c #1A77A7",
"K  c #0C7AB5",
"L  c #0C7BBC",
"P  c #117DBC",
"I  c #1174B0",
"U  c #186FA1",
"Y  c #2278AA",
"T  c #367CA5",
"R  c #347DB2",
"E  c #2D7194",
"W  c #5E7F9F",
"Q  c #0C7FC1",
"!  c #2D819E",
"~  c #0D8BBC",
"^  c #1382BD",
"/  c #1C85BD",
"(  c #1C8ABA",
")  c #1789B7",
"_  c #188EB9",
"`  c #3883A9",
"'  c #2485B4",
"]  c #2585BB",
"[  c #2985BA",
"{  c #2289BD",
"}  c #278AB9",
"|  c #3587B9",
" . c #2090B8",
".. c #5C8297",
"X. c #63859A",
"o. c #6287AA",
"O. c #688BB7",
"+. c #7696B0",
"@. c #6FA1BA",
"#. c #158BC4",
"$. c #1A8BC3",
"%. c #1988C8",
"&. c #0B8EC6",
"*. c #278AC2",
"=. c #388EC8",
"-. c #3793C7",
";. c #3B99D2",
":. c #4591CA",
">. c #78A5C1",
",. c #59AEE5",
"<. c #58B7EA",
"1. c #4CB6F5",
"2. c #49B7F8",
"3. c #4FB9FA",
"4. c #51B9F6",
"5. c #51BBFB",
"6. c #79BDE3",
"7. c #63B5EE",
"8. c #50A5D8",
"9. c #56C0FE",
"0. c #6DCAF8",
"q. c #75CDFD",
"w. c #7CCDFE",
"e. c #77C8F8",
"r. c #75D5FE",
"t. c #7CD3FF",
"y. c #7FD5FB",
"u. c #8F9B99",
"i. c #98A29A",
"p. c #A5A49E",
"a. c #909AAF",
"s. c #9BA5A3",
"d. c #9BA4AD",
"f. c #9BABAC",
"g. c #95A7A8",
"h. c #99AAB7",
"j. c #8BA1A3",
"k. c #A3A5A3",
"l. c #A3AAA4",
"z. c #A7AAA8",
"x. c #A4A9B4",
"c. c #A9B0AD",
"v. c #8CB5D1",
"b. c #A4ABC5",
"n. c #A4B2CA",
"m. c #B4B4CF",
"M. c #86BEE2",
"N. c #87B6E4",
"B. c #82BEF3",
"V. c #92C1DD",
"C. c #A3C5DE",
"Z. c #83C2E4",
"A. c #8CC4E3",
"S. c #84C5EC",
"D. c #8AC6EA",
"F. c #8BCCEC",
"G. c #88CBE7",
"H. c #92C4E1",
"J. c #96CAE4",
"K. c #98C9EA",
"L. c #8BD1EB",
"P. c #9BD3EB",
"I. c #84CBF4",
"U. c #8BCCF5",
"Y. c #84C7FB",
"T. c #85CDFE",
"R. c #8ACCFD",
"E. c #88C6F8",
"W. c #92CCF4",
"Q. c #91CBFD",
"!. c #94C7F8",
"~. c #84D1F4",
"^. c #8BD1F4",
"/. c #83D3FF",
"(. c #8AD4FE",
"). c #81D9FF",
"_. c #8BDAFF",
"`. c #93D1FB",
"'. c #9DD5FE",
"]. c #9DDBFD",
"[. c #98D4F3",
"{. c #ABD8EB",
"}. c #B4DDEC",
"|. c #B8D9E9",
" X c #A2D3F4",
".X c #A4D6FC",
"XX c #A5DCFF",
"oX c #ACDBF4",
"OX c #B4DDF4",
"+X c #B9DDF9",
"@X c #9FE1FF",
"#X c #B5E1EF",
"$X c #AAE4FE",
"%X c #AFE2F5",
"&X c #B4E1F3",
"*X c #B7E1F6",
"=X c #BFF4FF",
"-X c #D6DDDC",
";X c #D6DCE2",
":X c #E3DEE2",
">X c #DBE1E4",
",X c #C8E8FD",
"<X c #D6E8FD",
"1X c #CAF3FF",
"2X c #D8FAFF",
"3X c #EEEEED",
"4X c #E8E5E8",
"5X c #F0EEEE",
"6X c #EDF0EE",
"7X c #F3F1EF",
"8X c #EDEDF2",
"9X c #E5EBF5",
"0X c #F3EDF2",
"qX c #ECF9F6",
"wX c #E4FEFF",
"eX c #EDFFFF",
"rX c #EAF5F7",
"tX c #F4F4F4",
"yX c #F6FBF5",
"uX c #FBFCF5",
"iX c #FCF5FC",
"pX c #F4FEFD",
"aX c #FFFFFF",
"sX c #FEFFFE",
"dX c #F5F6FA",
/* pixels */
"aXaXaXaXaXaXaXaXaXaXaXaXaXaXaXaXaXaXaXaXaXaXaXaXaXaXaXaXaXaXaXaXaXaXaXaXaXaXaXaXaXaXaXaXaXaXaXaXaXaXaXaXaXaXaXaXaXaXaXaXaXaXaXaX",
"aXaXaXaXaXaXaXaXaXaXaXaXaXaXaXaXaXaXaXaXaXaXaXaXaXaXaXaXaXaXaXaXaXaXaXaXaXaXaXaXaXaXaXaXaXaXaXaXaXaXaXaXaXaXaXaXaXaXaXaXaXaXaXaX",
"aXaXaXaXaXaXaXaXaXaXaXaXaXaXaXaXaXaXaXaXaXaXaXaXaXaXaXaXaXaXaXaXaXaXaXaXaXaXaXaXaXaXaXaXaXaXaXaXaXaXaXaXaXaXaXaXaXaXaXaXaXaXaXaX",
"aXaXaXaXaXaXaXaXaXaXaXaXaXaXaXaXaXaXaXaXaXaXaXaXaXaXaXaXaXaXaXaXaXaXaXaXaXaXaXaXaXaXaXaXaXaXaXaXaXaXaXaXaXaXaXaXaXaXaXaXaXaXaXaX",
"aXaXaXaXaXaXaXaXaXaXaXaXaXaXaXaXaXaXaXaXaXaXaXaXaXaXaXaXaXaXaXaXaXaXaXaXaXaXaXaXaXaXaXaXaXaXaXaXaXaXaXaXaXaXaXaXaXaXaXaXaXaXaXaX",
"aXaXaXaXaXaXaXaXaXaXaXaXaXaXaXaXaXaXaXaXaXaXaXsXaXsXsXsXaXaXaXaXsXsXsXsXsXsXsXsXaXaXaXaXaXaXaXaXaXaXaXaXaXaXaXaXaXaXaXaXaXaXaXaX",
"aXaXaXaXaXaXaXaXaXaXaXaXaXaXaXaXaXsXaXaXaXaXaXaXaXaXaXaXaXaXaXaXaXaXaXaXaXaXaXaXaXaXaXaXaXaXsXaXaXaXaXaXaXaXaXaXaXaXaXaXaXaXaXaX",
"aXaXaXaXaXaXaXaXaXaXaXaXaXaXaXaXsXsXsXsXaXaXaXaX6X6X3X3X3X5X5X5X5X5X5X5X0X0X0X3XaXaXaXaXsXsXsXsXaXaXaXaXaXaXaXaXaXaXaXaXaXaXaXaX",
"aXaXaXaXaXaXaXaXaXaXaXaXaXaXsXuXuXuXuXuXyXyXyXyX; - - - - - - - - - - - - - - - tXtXtX7XsXuXsXaXaXaXaXaXaXaXaXaXaXaXaXaXaXaXaXaX",
"aXaXaXaXaXaXaXaXaXaXaXaXaXaXaXaXaXyXyXaXaXaXpXpX$ $ $ O O O O O O O O O O $ $ O pXsXsXsXsXsXaXaXaXaXaXaXaXaXaXaXaXaXaXaXaXaXaXaX",
"aXaXaXaXaXaXaXaXaXaXaXaXaXaXaXaXaXpX-Xs.l.l.k.f.t r r r r r r r r r r r r r r 0 f.k.k.z.c.:XaXsXaXaXaXaXaXaXaXaXaXaXaXaXaXaXaXaX",
"aXaXaXaXaXaXaXaXaXaXaXaXaXaXaXaXtXaXx.$ X     O ` ] ] ] ] ] ] ] ] ] ] ] ] ] ] ` $     X # a.aX0XaXaXaXaXaXaXaXaXaXaXaXaXaXaXaXaX",
"aXaXaXaXaXaXaXaXaXaXaXaXaXuXaXiXiXiXm.> , & $ , U L #.L L L L L L L L L L L L J 1 $ & , , n.aXaXaXaXaXaXaXaXaXaXaXaXaXaXaXaXaXaX",
"aXaXaXaXaXaXaXaXaXaXaXaXaXdXuX0XC m B F F F l S ,.5.9.3.3.3.3.3.3.3.3.3.3.3.3.<.G c G G g z N Z dXuXaXaXaXaXaXaXaXaXaXaXaXaXaXaX",
"aXaXaXaXaXaXaXaXaXaXaXaXaXuXuX8X* % q R ] / ( ' t._._.(.(.(.(.(.(.(.(.(.(.(.(.).) ) ~ _ Y q & O tXuXaXaXaXaXaXaXaXaXaXaXaXaXaXaX",
"aXaXaXaXaXaXaXaXaXaXaXaXiX3X4X;X6 < u [ %.#.~ ( e.R.R.E.E.E.Y.Y.Y.T.Y.Y.Y.T.Y.q._ ~ &.#.*.s 5 8 >X4X0XiXaXaXaXaXaXaXaXaXaXaXaXaX",
"aXaXaXaXaXaXaXaXaXaXaXiXsXC   y T Y :.(.e.e.q.q.Y.R.Q.W.6.U._.t.)./.(.U.(.(.).t.r.r.t.t.t.-.J ! 6 o Z sXaXaXaXaXaXaXaXaXaXaXaXaX",
"aXaXaXaXaXaXaXaXaXpXpXaXiXN % 5 J I :.R.Q.Q.^.~.R.!.K.H.H.F.(.y./.w.S.D.D.E.w.w.y.~.U.T._.;.~ J 5 & N sXaXpXsXsXaXaXaXaXaXaXaXaX",
"aXaXaXaXaXaXaXaXsXpX-Xd.b.B 9 s ;.;.,.R.R.U.U.F.+X+X+X|.|.P.G.~.^.S.J.OXOXoXXX@X~.~./.T.(.7.;.-.d q x b.x.-XaXyXaXaXaXaXaXaXaXaX",
"aXaXaXaXaXaXaXaXyXaXs.X > h | ] y.w.T.R.`.W.W.K.wXpXpXpXwX#XG.^.U.A.OXeXeXeXwX2XL.~.~.E.T.(._.w.*.R l % $ u.pXsXaXaXaXaXaXaXaXaX",
"aXaXaXaXaXaXaXaXyXaXz.X > D / %.w.Y.T.U.D.A.H.C.pXpXpXpXeX#XG.^.D.V.|.pXpXpXpXwXJ.G.D.I.Y.R.Q.Y.%.*.D , $ f.aXaXpXaXaXaXaXaXaXaX",
"aXaXaXaXaXaXaXaXyXpXz.  % g ^ %.w.E.^.U.F.$X1X<XaXaXaXaXeX&XG.~.I.A.|.pXpXsXpXpX,X1XXXD.E.R.Q.Y.%.$.D , X s.pXpXpXaXaXaXaXaXaXaX",
"aXaXaXaXaXaXaXaXpXpXl.  # g ) $.Y.W.^.G.Z.=XwXwXpXsXpXpXwX$Xy.t.T.D.OXpXpXsXpXpXdXeX1XA.E.E.R.T.$.( l $   i.pXdXpXaXaXaXaXaXaXaX",
"aXaXaXaXaXaXaXaXpXpXf.O , f ' { T.E.F.G.v.}.<X<X9X8X8X9XwX$Xr.r.t.S.oXeXpXsXpXsXiXdX<XJ.J.U.E.T.( ' f , X j.eXdXpXaXaXaXaXaXaXaX",
"aXaXaXaXaXaXaX3X; $ 0 T Y <.).q.t.w.].2XeXA $ # # # M pXwX$Xq.r.t.S.oXeXpXn . . o o M eXwX$XI.t.t.).<.J ` 0 O - tXaXaXaXaXaXaXaX",
"aXaXaXaXaXaXaX5X; $ r [ P 1./.I.t.e.oXwXpXM o o # # M pXwX$Xw.t.).S.{.eXsXn . . . . v pXeX%XI.).U./.4.K [ r O @ 7XaXaXaXaXaXaXaX",
"aXaXaXaXaXaXaX5X+ O r } ^ 4.(.E.I.G.{.wXaXv o o o o M pXeX*XI./._.A.|.pXsXn . . . . v pXeX#XG._.U./.4.K [ w O @ 7XaXaXaXaXaXaXaX",
"aXaXaXaXaXaXaX5X+ O r -.^ 1./.E.I.G.}.eXpXM # # % % M pXeX*XD.U.^.A.|.eXaXv o # # O v pXeX&XG.^.U./.4.K [ w O @ 7XaXaXaXaXaXaXaX",
"aXaXaXaXaXaXaX5X: O r ] ^ 1./.E.F.L.#XwXeXb % > > , V pXwXoXD.6.6.A.{.wXpXb > > > , V eXwX&XF.~.U./.4.K [ e O - 3XaXuXsXaXaXaXaX",
"aXaXaXaXaXaXaX5X+ O r ] P 1./.I.I.L.{.#X,X+.W O.O.O.v.,X+XK.U./.T.^.K.OX,Xa.W O.O.O.v.,XOX[._./.(._.9.P *.r $ ; 7XaXaXaXaXaXaXaX",
"aXaXaXaXaXaXaX5X+ O r ] P 1./.Y.y.~.[.P.v..X'.'.XX'.!.K.K.D./.).y./.E.D.N..X'.'.R.`.Q.W.U._.y.y././.5.L } r $ - 3XaXaXaXaXaXaXaX",
"aXaXaXaXaXaXaX3X+ O r ] L 1./.Y./.y.I.D.U.R.Y.R.R.R.B.D.Q.Y./.t.t.w.T.E.R.R.T.Y.e.w.Y.R.(./.t.t.T./.5.L ] r $ - 3XaXuXaXaXaXaXaX",
"aXaXaXaXaXaXaX3X+ O r ] L 1./.Y.T.T.T.U.U.E.R.T.T.R.R.R.R.T.T.T.T.T.T.R.R.R.T.T.T.T.T.R.(./././.R.).5.L ] e O + 3XaXsXaXaXaXaXaX",
"aXaXaXaXaXaXaX3X+ O r ] L 2./.Y.R.T.T.T.T.T.T.T.T.T.T.T.T.T.T.T.T.T.T.T.T.T.T.T.T.T.T.T.(.(.T.R.R.).3.L ] e O - 3XaXsXaXaXaXaXaX",
"aXaXaXaXaXaXaX3X+ O r ] L 2./.Y.R.T.T.T.T.T.T.T.T.T.T.T.T.T.T.T.T.T.T.T.T.T.T.T.T.T.T.T.T.T.T.R.R.).3.L ] r $ - 3XaXaXaXaXaXaXaX",
"aXaXaXaXaXaXaX3X+ O r { L 2./.Y.T.T.T.T.T.T.T.T.T.T.T.T.T.T.T.T.T.T.T.T.T.T.T.T.T.T.T.T.T.T.T.T.R.).3.L ] r $ - 3XaXaXaXaXaXaXaX",
"aXaXaXaXaXaXaX3X- # r { L 2./.Y.T.T.T.T.T.T.T.T.T.T.T.T.T.T.T.T.T.T.T.T.T.T.T.T.T.T.T.T.T.T.T.T.R./.3.L ] r $ - 3XaXaXaXaXaXaXaX",
"aXaXaXaXaXaXaX3X- # r { Q 2./.Y.T.T.T.T.T.T.T.R.(.(.(.(.(.(.(.(.T.T.T.T.T.T.T.T.T.T.T.T.T.T.T.T.R./.3.L { r $ - 3XaXaXaXaXaXaXaX",
"aXaXaXaXaXaXaX3X- # r { #.2./.Y.T.T.T.T.T.T.T.T.T.T.T.T.T.T.T.T.T.T.T.T.T.T.T.T.T.T.T.T.T.T.T.T.R./.3.L { r $ - 3XaXaXaXaXaXaXaX",
"aXaXaXaXaXaXaX6X- # 0 ` J <.y.w.T.R.R.R.R.R.T.U.M.M.M.M.M.M.M.M.M.M.M.M.M.M.M.Z.T.T.T.T.R.R.T.T.t.y.<.J ` 0 $ - 6XaXaXaXaXaXaXaX",
"aXaXaXaXaXaXaXpXqXpXf.# 4 c ) / w.R.R.Q.R.E.I.Z.6 3 3 3 3 2 2 2 2 2 2 2 2 = 2 6 Z./.I.(.U.U.T.t.( ' f 1 # f.pXqXpXaXaXaXaXaXaXaX",
"aXaXaXaXaXaXaXpXqXpXk.  & g ) #.w.R.R.Q.!.'.].J.$ X   X X X X X X X X X X   X $ H.].W.U.U.U.U.t.$.( g &   k.pXqXaXaXaXaXaXaXaXaX",
"aXaXaXaXaXaXaXpXqXpXk.X 1 S ^ %.w.T.R.R.W.>.X.X.x x a a p p p p p p p p a j j a ....@.P.F.U.U.t.%.$.S ,   k.pXqXaXaXaXaXaXaXaXaX",
"aXaXaXaXaXaXaXaXqXyXk.X < S / %.w.T.T.U.[.k # 1 J..X XP. X X X X X X X XK. XP.V.1 $ i P.F.U.T.t.%.*.S < X k.yXqXaXaXaXaXaXaXaXaX",
"aXaXaXaXaXaXaXaXaXpXz.# > l R =.q.y.).(.W.k # 1 K.U.E.E.U.U.U.U.U.U.U.U.E.E.E.K.4 # k P.U.T.(.w.=.:.F , $ s.aXyXaXaXaXaXaXaXaXaX",
"aXaXaXaXaXaXaXaXyXsX>Xa.n.B q u =.;.<./.[.@.X.+.U.T.T.T.T.T.T.T.T.T.T.T.T.T.T.U.o...@.W.I.8.;.=.s q z h.d.-XaXyXaXaXaXaXaXaXaXaX",
"aXaXaXaXaXaXaXaXsXpXaXaXaXN % < H K -.).(.`.'.XXR.T.T.T.T.T.T.T.T.T.T.T.T.T.T.T.'.[.`.T./.;.P Y < % m aXaXiXsXaXaXaXaXaXaXaXaXaX",
"aXaXaXaXaXaXaXaXaXaXuX0XsXZ o 6 E H -.w.q.e.e.e.T.T.T.T.T.T.T.T.T.T.T.T.T.T.T.T.e.0.0.q.q.-.J E 7 o C aXaXsXsXaXaXaXaXaXaXaXaXaX",
"aXaXaXaXaXaXaXaXaXaXaXaXsXdXtX;X3 5 u =.%.%.( ] /.R.R.R.R.R.R.R.R.R.R.R.R.R.R.t. .~ &.#.*.d 5 7 9X0XsXaXaXaXaXaXaXaXaXaXaXaXaXaX",
"aXaXaXaXaXaXaXaXaXaXaXaXaXaXaX3X. % q R ] / ( ' )././././././././././././././.t. .) ~ _ | 9 # = 8XdXsXaXaXaXaXaXaXaXaXaXaXaXaXaX",
"aXaXaXaXaXaXaXaXaXaXaXaXsXyXsX3XZ m B l D f g f <.3.3.3.3.5.5.5.5.5.5.5.3.3.3.<.G g f D l z N C sXsXaXaXaXaXaXaXaXaXaXaXaXaXaXaX",
"aXaXaXaXaXaXaXaXaXaXaXaXaXaXaXiXiXaXb.% , & $ , J L L L L L L L L L L L L L L J 4 $ & , % b.aXsXaXaXaXaXaXaXaXaXaXaXaXaXaXaXaXaX",
"aXaXaXaXaXaXaXaXaXaXaXaXaXaXaXaXiXsXx.& X X   $ ` ] ] [ ] ] ] ] ] ] ] ] ] ] ] ` X   O $   d.pXtXaXaXaXaXaXaXaXaXaXaXaXaXaXaXaXaX",
"aXaXaXaXaXaXaXaXaXaXaXaXaXaXaXaXaXaX4Xk.k.k.p.s.t e r r r r r r r r r r e r r 0 g.p.z.c.s.>XyXaXaXaXaXaXaXaXaXaXaXaXaXaXaXaXaXaX",
"aXaXaXaXaXaXaXaXaXaXaXaXaXaXaXaXsX7XsXsXpXpXpXpX$ # # $ $ $ $ $ $ $ $ $ # # # O pXpXaXaXuXaXsXaXaXaXaXaXaXaXaXaXaXaXaXaXaXaXaXaX",
"aXaXaXaXaXaXaXaXaXaXaXaXaXaXaXaXaXsXyXaXyXpXpXpX; * - - - - - - - - - - - - - - tXdXuXsXuXsXaXuXaXaXaXaXaXaXaXaXaXaXaXaXaXaXaXaX",
"aXaXaXaXaXaXaXaXaXaXaXaXaXaXaXaXaXaXaXaXpXpXpXpX0X0X5X5X3X3X3X3X3X3X3X3X3X3X3X3XaXaXaXaXaXaXaXaXaXaXaXaXaXaXaXaXaXaXaXaXaXaXaXaX",
"aXaXaXaXaXaXaXaXaXaXaXaXaXaXaXaXaXaXaXaXaXpXpXpXaXaXaXaXaXaXaXaXaXaXaXaXaXaXaXaXaXaXaXaXaXaXaXaXaXaXaXaXaXaXaXaXaXaXaXaXaXaXaXaX",
"aXaXaXaXaXaXaXaXaXaXaXaXaXaXaXaXaXaXaXaXaXaXpXpXaXaXaXaXaXaXaXaXpXpXpXpXpXpXpXpXaXaXaXaXaXaXaXaXaXaXaXaXaXaXaXaXaXaXaXaXaXaXaXaX",
"aXaXaXaXaXaXaXaXaXaXaXaXaXaXaXaXaXaXaXaXaXaXaXpXaXaXaXaXaXaXaXaXaXaXaXaXaXaXaXpXaXaXaXaXaXaXaXaXaXaXaXaXaXaXaXaXaXaXaXaXaXaXaXaX",
"aXaXaXaXaXaXaXaXaXaXaXaXaXaXaXaXaXaXaXaXaXaXaXaXaXaXaXaXaXaXaXaXaXaXaXaXaXaXaXaXaXaXaXaXaXaXaXaXaXaXaXaXaXaXaXaXaXaXaXaXaXaXaXaX",
"aXaXaXaXaXaXaXaXaXaXaXaXaXaXaXaXaXaXaXaXaXaXaXaXaXaXaXaXaXaXaXaXaXaXaXaXaXaXaXaXaXaXaXaXaXaXaXaXaXaXaXaXaXaXaXaXaXaXaXaXaXaXaXaX",
"aXaXaXaXaXaXaXaXaXaXaXaXaXaXaXaXaXaXaXaXaXaXaXaXaXaXaXaXaXaXaXaXaXaXaXaXaXaXaXaXaXaXaXaXaXaXaXaXaXaXaXaXaXaXaXaXaXaXaXaXaXaXaXaX",
"aXaXaXaXaXaXaXaXaXaXaXaXaXaXaXaXaXaXaXaXaXaXaXaXaXaXaXaXaXaXaXaXaXaXaXaXaXaXaXaXaXaXaXaXaXaXaXaXaXaXaXaXaXaXaXaXaXaXaXaXaXaXaXaX"
};
