/* XPM */
static char *f45cd59c35614c1d8e3336b51ba4aad4[] = {
/* columns rows colors chars-per-pixel */
"64 64 231 2 ",
"   c #040100",
".  c #0B0200",
"X  c #0D0A01",
"o  c #080704",
"O  c #130200",
"+  c #1B0200",
"@  c #130B01",
"#  c #0D110F",
"$  c #191408",
"%  c #0B0F12",
"&  c #0E1614",
"*  c #0F1815",
"=  c #101716",
"-  c #121916",
";  c #111518",
":  c #151B1B",
">  c #1A1A1B",
",  c #240200",
"<  c #290300",
"1  c #240A00",
"2  c #2C0B00",
"3  c #211500",
"4  c #2A1700",
"5  c #361B01",
"6  c #3B2800",
"7  c #28261B",
"8  c #171E20",
"9  c #1E2324",
"0  c #242526",
"q  c #462905",
"w  c #562E00",
"e  c #5C3300",
"r  c #593903",
"t  c #5A3B09",
"y  c #633700",
"u  c #653A00",
"i  c #683C00",
"p  c #5C4300",
"a  c #644302",
"s  c #764300",
"d  c #7A4900",
"f  c #785D00",
"g  c #7B593B",
"h  c #7C5B45",
"j  c #634B52",
"k  c #675655",
"l  c #69524C",
"z  c #67605E",
"x  c #6E5F65",
"c  c #6F656C",
"v  c #706272",
"b  c #9D720F",
"n  c #A37514",
"m  c #A06F12",
"M  c #996E2B",
"N  c #956D29",
"B  c #9B712C",
"V  c #96742B",
"C  c #996D33",
"Z  c #946B39",
"A  c #987436",
"S  c #A67235",
"D  c #8E5C32",
"F  c #825E41",
"G  c #8E6C4A",
"H  c #A68A00",
"J  c #A8961A",
"K  c #9A8C28",
"L  c #9C9225",
"P  c #A7872C",
"I  c #A29334",
"U  c #A69733",
"Y  c #B99436",
"T  c #A49131",
"R  c #DE9A0C",
"E  c #D4991B",
"W  c #CF9B1B",
"Q  c #E69B03",
"!  c #E99D03",
"~  c #EC9E09",
"^  c #D8A01F",
"/  c #ECA305",
"(  c #EBAA02",
")  c #EDA20A",
"_  c #E8A907",
"`  c #F0A20C",
"'  c #F2AA06",
"]  c #ECB503",
"[  c #FFBE09",
"{  c #F8B904",
"}  c #E8A91C",
"|  c #F0AE11",
" . c #F6B818",
".. c #E7B218",
"X. c #DA9C24",
"o. c #C78E2D",
"O. c #DAA527",
"+. c #E9A62B",
"@. c #E7A729",
"#. c #ECB125",
"$. c #EAB229",
"%. c #FABB23",
"&. c #E5A534",
"*. c #EBA432",
"=. c #EBA933",
"-. c #ECAB3B",
";. c #E5A739",
":. c #F1AC35",
">. c #F0A92A",
",. c #FFC205",
"<. c #FDCD03",
"1. c #FFC10C",
"2. c #F8CB07",
"3. c #EDD708",
"4. c #F4D702",
"5. c #FCD602",
"6. c #F5DB01",
"7. c #FDDA02",
"8. c #FED50C",
"9. c #F4DB0B",
"0. c #FEDC0A",
"q. c #F6D609",
"w. c #FEC919",
"e. c #EDDB1C",
"r. c #E8D818",
"t. c #FED413",
"y. c #FCDC13",
"u. c #F6D41D",
"i. c #FDD61B",
"p. c #F2DB1B",
"a. c #FDDA1D",
"s. c #F3DF14",
"d. c #F5E100",
"f. c #FFE103",
"g. c #F8E109",
"h. c #F9E315",
"j. c #D2C43D",
"k. c #FCC825",
"l. c #ECDB23",
"z. c #EBDB2A",
"x. c #EAD622",
"c. c #FBD423",
"v. c #F2D62B",
"b. c #FDD52B",
"n. c #FDDE2B",
"m. c #F4DA26",
"M. c #EBD538",
"N. c #FED434",
"B. c #FCD93A",
"V. c #F7E32C",
"C. c #F8E42E",
"Z. c #FBE123",
"A. c #EBE338",
"S. c #FAE337",
"D. c #ECE023",
"F. c #CE9845",
"G. c #D4A34A",
"H. c #DBAB52",
"J. c #E1AE4D",
"K. c #F5B043",
"L. c #E7AF57",
"P. c #E8B45B",
"I. c #F0B24B",
"U. c #F7DE49",
"Y. c #E6D354",
"T. c #FDE343",
"R. c #ECE855",
"E. c #F7E759",
"W. c #FADE6C",
"Q. c #FADC74",
"!. c #ECE669",
"~. c #F6E46A",
"^. c #FAF266",
"/. c #EEE576",
"(. c #F7E577",
"). c #FCF575",
"_. c #A69C99",
"`. c #AA9F8F",
"'. c #9BA79D",
"]. c #9EA99A",
"[. c #AFA48E",
"{. c #AAA498",
"}. c #B8A49A",
"|. c #9DA6A3",
" X c #9FA9A1",
".X c #A2A4A5",
"XX c #A1AAA5",
"oX c #A6A5A9",
"OX c #BDA8A4",
"+X c #C5ADA3",
"@X c #FAEB9E",
"#X c #FCF998",
"$X c #FFFFA7",
"%X c #FFFFB4",
"&X c #FFFEBC",
"*X c #FFF6B8",
"=X c #D6D8D6",
"-X c #E6DBCF",
";X c #DEE3DF",
":X c #FFFDC3",
">X c #FEFECB",
",X c #FFF6C6",
"<X c #E7E9D8",
"1X c #F2EAD7",
"2X c #FFFED3",
"3X c #FFFFDB",
"4X c #FEF6DF",
"5X c #DEDEE2",
"6X c #EDEDED",
"7X c #EBE8E8",
"8X c #F3EBEB",
"9X c #FDFAE5",
"0X c #F7F4EE",
"qX c #FEFEEC",
"wX c #FBF4E9",
"eX c #EDEEF0",
"rX c #F4EEF5",
"tX c #ECF8FC",
"yX c #F4F3F3",
"uX c #FAF4F5",
"iX c #F3FEF5",
"pX c #FEFDF4",
"aX c #F3F4FC",
"sX c #FCF4FB",
"dX c #F5FDFE",
"fX c #FCFFFF",
"gX c white",
"hX c #FFFEFE",
"jX c #FEFDFD",
"kX c #FEFEFF",
"lX c #E8FAED",
/* pixels */
"gXgXgXgXgXgXgXgXgXgXgXgXgXgXgXgXgXgXgXgXgXgXgXgXgXgXgXgXgXgXgXgXgXgXgXgXgXgXgXgXgXgXgXgXgXgXgXgXgXgXgXgXgXgXgXgXgXgXgXgXgXgXgXgX",
"gXgXgXgXgXgXgXgXgXgXgXgXgXgXgXgXgXgXgXgXgXgXgXgXgXgXgXgXgXgXgXgXgXgXgXgXgXgXgXgXgXgXgXgXgXgXgXgXgXgXgXgXgXgXgXgXgXgXgXgXgXgXgXgX",
"gXgXgXgXgXgXgXgXgXgXgXgXgXgXgXgXgXgXgXgXgXgXgXgXgXgXgXgXgXgXgXgXgXgXgXgXgXgXgXgXgXgXgXgXgXgXgXgXgXgXgXgXgXgXgXgXgXgXgXgXgXgXgXgX",
"gXgXgXgXgXgXgXgXgXgXgXgXgXgXgXgXgXgXgXgXgXgXgXgXgXgXgXgXgXgXgXgXgXgXgXgXgXgXgXgXgXgXgXgXgXgXgXgXgXgXgXgXgXgXgXgXgXgXgXgXgXgXgXgX",
"gXgXgXgXgXgXgXgXgXgXgXgXgXgXgXgXgXgXgXgXgXgXgXgXgXgXgXgXgXgXgXgXgXgXgXgXgXgXgXgXgXgXgXgXgXgXgXgXgXgXgXgXgXgXgXgXgXgXgXgXgXgXgXgX",
"gXgXgXgXgXgXgXgXgXgXgXgXgXgXgXgXgXgXgXgXgXgXgXgXgXjXjXjXjXjXjXjXjXjXjXjXjXjXjXgXgXgXgXgXgXgXgXgXgXgXgXgXgXgXgXgXgXgXgXgXgXgXgXgX",
"gXgXgXgXgXgXgXgXgXgXgXgXgXgXgXgXgXgXgXgXgXgXgXgXgXgXgXgXgXgXgXgXgXgXgXgXgXgXgXgXgXgXgXgXgXgXgXgXgXgXgXgXgXgXgXgXgXgXgXgXgXgXgXgX",
"gXgXgXgXgXgXgXgXgXgXgXgXgXgXgXgXgXgXgXgXgXgXgXgX6X6X6X6X6XeXeXeXeXeXeXeXeXeXeXeXgXgXgXgXgXgXgXgXgXgXgXgXgXgXgXgXgXgXgXgXgXgXgXgX",
"gXgXgXgXgXgXgXgXgXgXgXgXgXgXgXgXgXgXdXdXtXaXuXuX0 : : : ; ; ; ; ; ; ; ; : % % > sXsXdXdXtXdXaXjXgXgXgXgXgXgXgXgXgXgXgXgXgXgXgXgX",
"gXgXgXgXgXgXgXgXgXgXgXgXgXgXgXgXgXjXdXgXdXfXjXjX@ .                             jXjXfXdXtXgXjXgXgXgXgXgXgXgXgXgXgXgXgXgXgXgXgXgX",
"gXgXgXgXgXgXgXgXgXgXgXgXgXgXgXgXjXjX=X|.XXXXoX[.a i y y u u u u u u u u u u u r [..X|.|.|.7XgXsXgXgXgXgXgXgXgXgXgXgXgXgXgXgXgXgX",
"gXgXgXgXgXgXgXgXgXgXgXgXgXgXgXgXsXgX{.        O F.=.*.@.=.=.=.=.=.=.=.=.@.:.:.G.O         {.jX0XgXgXgXgXgXgXgXgXgXgXgXgXgXgXgXgX",
"gXgXgXgXgXgXgXgXgXgXgXgXgXgXgXgXgXjX+XO O O O + X.Q Q Q ` ` ` ` ` ` ` ) ~ ) ) X.+ O O O O }.pXjXgXgXfXgXgXgXgXgXgXgXgXgXgXgXgXgX",
"gXgXgXgXgXgXgXgXgXgXgXgXgXjXgXuXj l F Z M M M m %.[ [ [ 1.1.1.1.1.1.1.1.[ 1.1.%.m M M C Z h l k uXgXjXgXgXgXgXgXgXgXgXgXgXgXgXgX",
"gXgXgXgXgXgXgXgXgXgXgXgXgXgXgX0X@ O y J.&.+.+.} i.7.7.7.7.7.7.7.7.7.7.7.5.7.7.i.} +.+.&.J.e + O yXgXfXgXgXgXgXgXgXgXgXgXgXgXgXgX",
"gXgXgXgXgXgXgXgXgXgXgXgXuXrX7X-Xq , s $._ ( ( ( 5.5.5.5.5.5.5.5.5.5.5.5.4.5.5.<.( ( ( ( #.s < 5 -XeXeXjXgXgXgXgXgXgXgXgXgXgXgXgX",
"gXgXgXgXgXgXgXgXgXgXjXpXjXx . 5 o.R | w.t.<.4.h.7.7.0.9.4.4.0.0.0.0.4.3.4.7.5.7.h.q.<.t.w.| R o.q o v sXpXjXuXjXgXgXgXgXgXgXgXgX",
"gXgXgXgXgXgXgXgXgXjXjXgXjXl 1 < R ' { <.0.9.r.e.c.c.v.z.l.p.y.0.8.3.r.x.x.x.u.u.e.e.y.y.8.{ / } , . j sXqXpXiXgXgXgXgXgXgXgXgXgX",
"gXgXgXgXgXgXgXgXfXdX=X{.OXh e d | { <.8.a.S.E.!.W.Q./.!.R.A.p.9.9.r.U.)././.~.~.~.E.T.c.t.,.{  .d w G OX_.<XjXiXgXgXgXgXgXgXgXgX",
"gXgXgXgXgXgXgXgXiXgX'.. O G L.$.1.<.8.a.M.).$X&X&X:X:X%X#X^.l.3.g.r.!.%X>X2X:X&X&X$X).M.n.8.,.w.$.P.G O   '.iXlXgXgXgXgXgXgXgXgX",
"gXgXgXgXgXgXgXgXiXdX X  O Z &.| 2.q.p.M.Y.@X>XqX9X9XqX3X%X!.z.9.9.l./.:XqXjXqX9XpX2X@XY.B.u.2.t._ &.C O   XXfXiXgXgXgXgXgXgXgXgX",
"gXgXgXgXgXgXgXgXiXjXXX  O C *.' y.g.S.).@X,XqXgXgXgXgXpX:X/.v.0.6.m./.,XuXdXjXgXgXpX,X@X).S.y.8.( @.M O   |.fXaXgXgXgXgXgXgXgXgX",
"gXgXgXgXgXgXgXgXjXgX{.  O C &.| h.r.E.$X>XqXdXdXqXqXpXqX:X(.b.0.5.c.~.*XpXgXgXgXgXgXpX2X%XE.e.y.' =.B +   .XgXsXgXgXgXgXgXgXgXgX",
"gXgXgXgXgXgXgXgXjXjX[.O , m @.] 0.r.~.%XqXjXdXiX1X1X7X1X,XQ.b.8.8.c.W.*X1X7X7X7XfXgXgXpX&X~.p.0.] #.n ,   `.jXrXgXgXgXgXgXgXgXgX",
"gXgXgXgXgXgXgX6X>   r G.W  .i.5.0.c.W.:XqXjXqX9X7 $ @ 3 + P B.t.t.N.P O $ $ ; 0 9XpXjXqX:X~.u.0.5.i.k.@.G.t . 0 eXgXgXgXgXgXgXgX",
"gXgXgXgXgXjXgX6X-   u ;.Q ,.0.5.0.c.Q.:XqXjXqX9X$ .   . O P B.8.8.N.T O       X 9XqXjXqX:X(.c.7.5.7.,./ -.i   : 6XgXgXjXgXgXgXgX",
"gXgXgXgXgXjXgX6X&   i -./ ,.0.7.0.v./.:XqXgXpX0X@       @ K C.6.7.l.I . o     $ 0XpXgXqX:X/.x.0.5.0.,./ -.i   : 6XgXgXgXgXgXgXgX",
"gXgXgXgXgXjXgX6X&   i K./ ,.0.6.9.z.!.&X3XqXqX9X3 .   X X K V.d.d.l.L . o     $ 4XqXqX3X%X!.x.9.4.7.,./ &.y . 9 6XgXgXgXgXgXgXgX",
"gXgXgXgXgXjXgX6X&   i -./ ,.0.6.3.l.R.#X&X>X:X,X+ O @ X @ L z.9.g.z.L @ X . @ O :X:X:X%X#XR.e.4.6.7.,./ -.y   & 6XgXgXgXgXgXgXgX",
"gXgXgXgXgXjXgX6X*   u -./ ,.7.6.4.s.A.^.!.(.(.Q.P P K K L j.l.9.9.l.j.L U U U Y (.(.(.!.R.A.h.g.7.0.,.' -.i   : yXgXgXgXgXgXgXgX",
"gXgXgXgXgXjXgX6X*   u -./ ,.7.5.7.0.s.l.z.v.c.k.B.B.S.V.z.l.y.q.7.h.l.z.D.m.N.N.b.b.v.z.e.h.g.f.5.0.,./ -.u   - 6XgXgXgXgXgXgXgX",
"gXgXgXgXgXjXgX6X*   u -./ ,.7.5.f.7.6.3.9.0.5.<.8.8.7.d.9.q.7.7.7.7.9.g.d.7.8.8.5.7.0.9.9.g.f.f.5.7.,./ -.u   = 6XgXjXgXgXgXgXgX",
"gXgXgXgXgXjXgX6X&   u -./ ,.7.5.5.5.5.q.0.7.7.7.0.7.7.7.7.7.5.7.7.5.5.5.7.7.5.5.5.5.7.7.0.7.7.f.5.7.,./ -.u   = 6XgXgXgXgXgXgXgX",
"gXgXgXgXgXjXgX6X&   u -./ ,.7.5.5.5.7.7.7.7.5.5.5.5.7.7.7.7.7.7.7.7.5.5.5.5.7.7.7.7.5.5.0.0.0.7.5.7.,./ -.u   = 6XgXgXgXgXgXgXgX",
"gXgXgXgXgXjXgX6X&   u -./ ,.7.5.5.5.7.7.7.7.7.5.5.7.7.7.7.7.7.7.7.7.5.5.5.5.5.5.7.5.5.5.7.0.0.7.5.0.,./ -.u   = 6XgXgXgXgXgXgXgX",
"gXgXgXgXgXjXgX6X&   u -.! ,.7.5.5.7.7.7.7.5.5.5.5.5.7.7.7.7.7.7.7.7.5.5.5.5.5.5.5.5.5.5.7.0.0.7.5.0.,./ -.u   = 6XgXgXgXgXgXgXgX",
"gXgXgXgXgXjXgX6X>   u &.! ,.7.5.5.7.7.5.5.5.5.5.5.5.7.7.7.7.7.7.7.7.7.7.5.5.5.5.5.5.5.5.7.7.7.5.5.0.,./ -.u   - 6XgXgXgXgXgXgXgX",
"gXgXgXgXgXjXgX6X&   i K.! ,.0.7.5.7.7.5.5.5.5.5.5.5.7.7.7.7.7.7.7.7.7.7.5.5.5.5.5.5.5.5.7.7.7.5.7.0.,.! -.u   - 6XgXgXgXgXgXgXgX",
"gXgXgXgXgXjXgX6X&   i K.! ,.0.7.5.7.7.5.5.5.5.5.5.5.7.7.7.7.7.7.7.7.7.7.5.5.5.5.5.5.5.5.7.7.7.7.7.0.,.! -.u   - 6XgXgXgXgXgXgXgX",
"gXgXgXgXgXgXgX6X> . t H.E  .i.8.7.7.5.5.0.u.v.m.q.5.7.7.7.7.7.7.7.7.7.7.7.7.7.0.c.b.i.y.7.5.5.7.0.a.w.^ H.t   - 6XgXgXgXgXgXgXgX",
"gXgXgXgXgXgXgXgXjXgX[.. + n $.] 8.5.5.7.n.f 1 6 l.6.6.6.6.6.6.6.6.6.6.6.6.6.6.u.q 2 f n.9.7.7.8.] #.b + @ {.jXaXgXgXgXgXgXgXjXuX",
"gXgXgXgXgXgXgXgXjXgXXX  O A =.' t.6.5.q.n.a O 3 U.V.V.V.C.C.C.C.V.V.V.V.V.V.V.U.2 + p S.q.6.5.8._ =.V .   XXfXaXgXgXgXgXgXgXjXjX",
"gXgXgXgXgXgXgXgXjXgXoX  1 S >.( t.6.6.q.u.H a f I I I I I I I I I I I I I I I I f a H p.6.7.5.t.' >.B O   .XgXfXgXgXgXjXjXjXgXgX",
"gXgXgXgXgXgXgXgXjXgXoX. 2 S *./ t.q.6.q.y.n.U.Y.O . . . . . . . . . . . . . . O Y.T.Z.9.6.5.t.w.' :.C +   .XgXfXgXgXgXjXuXjXgXgX",
"gXgXgXgXgXgXgXgXfXfXoX  O D I.#.b.Z.y.q.q.0.t.M.O . . . . . . . . . . . . . . O M.p.0.0.5.8.i.b.#.I.Z + @ oXfXfXgXgXjXjXsXgXgXgX",
"gXgXgXgXgXgXgXgXdXtX=X_.}.g u s } { 2.0.6.6.5.u.J I I I I I I I I I I I I I I J x.6.7.5.7.2.{ #.s e F +X_.5XdXdXgXjXsXjXgXgXgXgX",
"gXgXgXgXgXgXgXgXdXtXgXgXjXk O < E Q ] 0.6.6.6.9.Z.V.V.V.C.C.C.C.V.V.V.V.V.V.V.Z.9.6.5.7.t.] _ W 1 O l uXgXgXjXaXjXsXsXgXgXgXgXgX",
"gXgXgXgXgXgXgXgXaXfXfXuXjXc . 6 F.X...c.8.q.8.8.5.6.6.6.6.6.6.6.6.6.6.6.6.6.6.5.5.5.8.t.c...W Y 4 . z sXjXjXgXgXjXjXgXgXgXgXgXgX",
"gXgXgXgXgXgXgXgXgXfXfXgXuXeX6X-X5 , d O._ ( ( ( 7.7.7.7.7.7.7.7.7.7.7.7.7.7.7.7.] ( ( _ $.d 2 4 1X0XyXgXgXgXgXgXjXgXgXgXgXgXgXgX",
"gXgXgXgXgXgXgXgXgXgXfXfXgXgXgX6X  + w L.;.+.@.} i.0.0.0.0.0.0.0.0.0.0.0.0.0.0.i.#.=.+.=.P.e O @ 8XjXyXgXgXgXgXgXgXgXgXgXgXgXgXgX",
"gXgXgXgXgXgXgXgXgXgXgXgXgXfXgXrXv j h G N N N b %.,.,.,.,.,.,.,.,.,.,.,.,.,.[ %.n B B B Z g l c uXgXuXgXgXgXgXgXgXgXgXgXgXgXgXgX",
"gXgXgXgXgXgXgXgXgXgXgXgXgXgXgXsXsXgX}.O O O O , X.! ! ! ! ! ! ! ! ! ! ! ! ! ! X., O O O . }.sXsXjXgXsXgXgXgXgXgXgXgXgXgXgXgXgXgX",
"gXgXgXgXgXgXgXgXgXgXgXgXgXgXgXgXgXpX{.        O G.&.-.-.-.-.-.-.-.-.=.=.=.=.@.G.O         {.pX8XgXgXgXgXgXgXgXgXgXgXgXgXgXgXgXgX",
"gXgXgXgXgXgXgXgXgXgXgXgXgXgXgXjXpXpX<X].'.'..X{.t u i i i i i i u u i i i u y r [..X|.|.XX;XgXgXgXgXgXgXgXgXgXgXgXgXgXgXgXgXgXgX",
"gXgXgXgXgXgXgXgXgXgXgXgXgXgXgXjXpXjXdXiXdXfXgXjX@ . .                         . jXjXdXdXdXfXgXgXgXgXgXgXgXgXgXgXgXgXgXgXgXgXgXgX",
"gXgXgXgXgXgXgXgXgXgXgXgXgXgXgXjXpXiXdXdXdXfXjXjX0 9 : - = = = = & & & & & ; 8 9 sXsXdXtXdXtXgXaXgXgXgXgXgXgXgXgXgXgXgXgXgXgXgXgX",
"gXgXgXgXgXgXgXgXgXgXgXgXgXgXgXgXgXgXgXfXgXgXgXgX6X6X6X6X6X6X6X6X6X6X6X6X6XeXeXyXgXgXgXfXfXfXgXgXgXgXgXgXgXgXgXgXgXgXgXgXgXgXgXgX",
"gXgXgXgXgXgXgXgXgXgXgXgXgXgXgXgXgXgXgXgXgXgXgXgXgXgXgXgXgXgXgXgXgXgXgXgXgXgXgXgXgXgXgXgXgXgXgXgXgXgXgXgXgXgXgXgXgXgXgXgXgXgXgXgX",
"gXgXgXgXgXgXgXgXgXgXgXgXgXgXgXgXgXgXgXgXgXgXgXgXgXjXjXjXjXjXjXjXjXjXjXjXjXjXgXgXfXfXgXgXgXgXgXgXgXgXgXgXgXgXgXgXgXgXgXgXgXgXgXgX",
"gXgXgXgXgXgXgXgXgXgXgXgXgXgXgXgXgXgXgXgXgXgXgXgXgXgXgXgXgXgXgXgXgXgXgXgXgXgXgXgXgXgXgXgXgXgXgXgXgXgXgXgXgXgXgXgXgXgXgXgXgXgXgXgX",
"gXgXgXgXgXgXgXgXgXgXgXgXgXgXgXgXgXgXgXgXgXgXgXgXgXgXgXgXgXgXgXgXgXgXgXgXgXgXgXgXgXgXfXfXgXgXgXgXgXgXgXgXgXgXgXgXgXgXgXgXgXgXgXgX",
"gXgXgXgXgXgXgXgXgXgXgXgXgXgXgXgXgXgXgXgXgXgXgXgXgXgXgXgXgXgXgXgXgXgXgXgXgXgXgXgXgXgXfXfXgXgXgXgXgXgXgXgXgXgXgXgXgXgXgXgXgXgXgXgX",
"gXgXgXgXgXgXgXgXgXgXgXgXgXgXgXgXgXgXgXgXgXgXgXgXgXgXgXgXgXgXgXgXgXgXgXgXgXgXgXgXgXgXfXfXgXgXgXgXgXgXgXgXgXgXgXgXgXgXgXgXgXgXgXgX",
"gXgXgXgXgXgXgXgXgXgXgXgXgXgXgXgXgXgXgXgXgXgXgXgXgXgXgXgXgXgXgXgXgXgXgXgXgXgXgXgXgXgXfXfXgXgXgXgXgXgXgXgXgXgXgXgXgXgXgXgXgXgXgXgX"
};
