/* XPM */
static char *_216cf743a66440296fe107e72db5c6c[] = {
/* columns rows colors chars-per-pixel */
"64 64 244 2 ",
"   c #030101",
".  c #0E0000",
"X  c #080709",
"o  c #120000",
"O  c #1C0000",
"+  c #140605",
"@  c #111208",
"#  c #0F161A",
"$  c #151613",
"%  c #151718",
"&  c #181518",
"*  c #191817",
"=  c #000B11",
"-  c #220000",
";  c #2B0000",
":  c #260900",
">  c #350000",
",  c #3D0B03",
"<  c #3D0000",
"1  c #291807",
"2  c #381809",
"3  c #291D11",
"4  c #30220E",
"5  c #242323",
"6  c #450000",
"7  c #460803",
"8  c #5B0100",
"9  c #451402",
"0  c #4C1303",
"q  c #42140C",
"w  c #511205",
"e  c #521409",
"r  c #5A1600",
"t  c #411E15",
"y  c #751700",
"u  c #641802",
"i  c #5E3718",
"p  c #732805",
"a  c #6C330A",
"s  c #73320C",
"d  c #63341D",
"f  c #68391B",
"g  c #5E3231",
"h  c #5E2E2A",
"j  c #6A2E26",
"k  c #653325",
"l  c #673531",
"z  c #7E451F",
"x  c #62433E",
"c  c #734726",
"v  c #6A4547",
"b  c #685656",
"n  c #6C4D51",
"m  c #6A5E62",
"M  c #6C6364",
"N  c #706266",
"B  c #871D00",
"V  c #9F3601",
"C  c #953E18",
"Z  c #892F0B",
"A  c #A33D0E",
"S  c #AA3D0D",
"D  c #A53A01",
"F  c #B63F07",
"G  c #A53B14",
"H  c #AA3F11",
"J  c #AD3F1A",
"K  c #B23F15",
"L  c #933F23",
"P  c #974207",
"I  c #8C4418",
"U  c #944213",
"Y  c #93431C",
"T  c #9C4214",
"R  c #AA4508",
"E  c #B54301",
"W  c #B2440D",
"Q  c #BD4601",
"!  c #AC4113",
"~  c #A84A19",
"^  c #B34515",
"/  c #AB511A",
"(  c #B55218",
")  c #8E4A21",
"_  c #84472A",
"`  c #934D25",
"'  c #9E4E2D",
"]  c #934325",
"[  c #945027",
"{  c #975229",
"}  c #894B33",
"|  c #9D4C34",
" . c #9E4F3C",
".. c #9F5031",
"X. c #96523D",
"o. c #8F563A",
"O. c #A34D2D",
"+. c #A6492A",
"@. c #A3512D",
"#. c #AB5024",
"$. c #BF5C26",
"%. c #A34C33",
"&. c #A54C38",
"*. c #A85336",
"=. c #B1533A",
"-. c #BD6830",
";. c #C94B05",
":. c #DD5E09",
">. c #CF531E",
",. c #CF5818",
"<. c #CE5716",
"1. c #D45516",
"2. c #D3561B",
"3. c #D2591A",
"4. c #DC5C16",
"5. c #D15000",
"6. c #E45C03",
"7. c #ED5E02",
"8. c #E25A0B",
"9. c #EB5D0B",
"0. c #ED570E",
"q. c #F55E02",
"w. c #FB5E03",
"e. c #F45D0A",
"r. c #FC5D0B",
"t. c #FA5606",
"y. c #EE5E11",
"u. c #E55A17",
"i. c #FD5C13",
"p. c #F55C17",
"a. c #DB610B",
"s. c #DB6404",
"d. c #DD6313",
"f. c #DB6519",
"g. c #EB6302",
"h. c #EC620E",
"j. c #E4640B",
"k. c #F56204",
"l. c #FB6104",
"z. c #F56903",
"x. c #F4620B",
"c. c #FA630A",
"v. c #FA6C0B",
"b. c #FB710C",
"n. c #ED6313",
"m. c #EB6419",
"M. c #E66B1A",
"N. c #E96D1C",
"B. c #E66617",
"V. c #F26414",
"C. c #F36519",
"Z. c #F8671A",
"A. c #F56B1B",
"S. c #F86717",
"D. c #EC711E",
"F. c #E6751C",
"G. c #FE7418",
"H. c #C25A26",
"J. c #D65322",
"K. c #E85E21",
"L. c #DE6525",
"P. c #D96B2A",
"I. c #C46D32",
"U. c #D16E38",
"Y. c #E36622",
"T. c #E46A23",
"R. c #E96827",
"E. c #F36725",
"W. c #F17532",
"Q. c #985548",
"!. c #A65A52",
"~. c #CF7546",
"^. c #FE863F",
"/. c #DC8A53",
"(. c #F68A41",
"). c #FB9947",
"_. c #ED9258",
"`. c #FC955D",
"'. c #E58F52",
"]. c #DE8565",
"[. c #DE946B",
"{. c #EB9976",
"}. c #ED9367",
"|. c #FFB37F",
" X c #FCA169",
".X c #9B929E",
"XX c #A99C9D",
"oX c #B4A39E",
"OX c #AAA59E",
"+X c #9A9EA1",
"@X c #A79CA6",
"#X c #B49EA1",
"$X c #9DA5A9",
"%X c #9FAAAB",
"&X c #A4A5A6",
"*X c #A4A4A9",
"=X c #A3AAAD",
"-X c #A7A7AB",
";X c #B7A4AA",
":X c #A6AAB1",
">X c #F9B996",
",X c #F0B789",
"<X c #C3ADB2",
"1X c #C5B1BA",
"2X c #FFC585",
"3X c #F8C594",
"4X c #FFDDB6",
"5X c #FFD0A3",
"6X c #FFECAF",
"7X c #D9D9D4",
"8X c #E8DDD6",
"9X c #FFE1CC",
"0X c #FFE9C5",
"qX c #FFF3C9",
"wX c #FAE9D9",
"eX c #FFF4D9",
"rX c #FFF9D8",
"tX c #DBDEE6",
"yX c #E0DCE6",
"uX c #DEE4EB",
"iX c #EEEDED",
"pX c #E6E5E9",
"aX c #F1ECEC",
"sX c #F8E8E4",
"dX c #EBF3EF",
"fX c #FFF5E3",
"gX c #FFF6EB",
"hX c #F9F7E9",
"jX c #EFECF0",
"kX c #F8EDF4",
"lX c #F3F3F3",
"zX c #FDF5F4",
"xX c #F5FAF6",
"cX c #FDFBF4",
"vX c #FDF5FB",
"bX c #F5FDFC",
"nX c #FFFFFE",
"mX c #FFFEFF",
"MX c white",
"NX c #FEFEFE",
"BX c #FDFFFD",
"VX c #FEFEFE",
"CX c #F7F5FA",
"ZX c #ECFCF9",
/* pixels */
"MXMXMXMXMXMXMXMXMXMXMXMXMXMXMXMXMXMXMXMXMXMXMXMXMXMXMXMXMXMXMXMXMXMXMXMXMXMXMXMXMXMXMXMXMXMXMXMXMXMXMXMXMXMXMXMXMXMXMXMXMXMXMXMX",
"MXMXMXMXMXMXMXMXMXMXMXMXMXMXMXMXMXMXMXMXMXMXMXMXMXMXMXMXMXMXMXMXMXMXMXMXMXMXMXMXMXMXMXMXMXMXMXMXMXMXMXMXMXMXMXMXMXMXMXMXMXMXMXMX",
"MXMXMXMXMXMXMXMXMXMXMXMXMXMXMXMXMXMXMXMXMXMXMXMXMXMXMXMXMXMXMXMXMXMXMXMXMXMXMXMXMXMXMXMXMXMXMXMXMXMXMXMXMXMXMXMXMXMXMXMXMXMXMXMX",
"MXMXMXMXMXMXMXMXMXMXMXMXMXMXMXMXMXMXMXMXMXMXMXMXMXMXMXMXMXMXMXMXMXMXMXMXMXMXMXMXMXMXMXMXMXMXMXMXMXMXMXMXMXMXMXMXMXMXMXMXMXMXMXMX",
"MXMXMXMXMXMXMXMXMXMXMXMXMXMXMXMXMXMXMXMXMXMXMXMXMXxXxXxXMXMXMXMXBXBXBXBXBXBXMXMXMXMXMXMXMXMXMXMXMXMXMXMXMXMXMXMXMXMXMXMXMXMXMXMX",
"MXMXMXMXMXMXMXMXMXMXMXMXMXMXMXMXMXMXMXMXMXMXMXMXxXxXxXxXCXCXCXCXBXBXBXBXBXBXBXMXMXMXMXMXMXMXMXMXMXMXMXMXMXMXMXMXMXMXMXMXMXMXMXMX",
"MXMXMXMXMXMXMXMXMXMXMXMXMXMXMXMXMXMXMXMXMXMXMXMXMXMXMXMXMXMXMXMXMXMXMXMXMXMXMXMXMXMXMXMXMXMXMXMXMXMXMXMXMXMXMXMXMXMXMXMXMXMXMXMX",
"MXMXMXMXMXMXMXMXMXMXMXMXMXMXMXMXMXMXBXBXBXMXMXMXiXiXiXiXiXiXiXiXjXjXjXjXjXjXjXjXMXMXMXMXMXMXMXMXMXMXMXMXMXMXMXMXMXMXMXMXMXMXMXMX",
"MXMXMXMXMXMXMXMXMXMXMXMXBXMXvXlXMXMXbXbXbXbXzXzX* % % % % % % % % % % % % @ % 5 CXCXbXbXxXBXBXBXMXMXMXMXMXMXMXMXMXMXMXMXcXMXcXlX",
"MXMXMXMXMXMXMXMXMXMXMXMXMXxXxXBXMXbXbXMXBXMXMXvX. o . . . . o o . . . . . . . + MXMXBXBXbXbXBXBXMXMXMXMXMXMXMXMXMXMXMXMXMXxXxXBX",
"MXMXMXMXMXMXMXMXMXMXMXMXCXxXCXMXvXcX7X%X=X=X*XXXq 0 0 0 0 0 0 0 0 0 0 0 0 w 0 , OX$X&X=X:XpXBXMXMXMXMXMXMXMXMXMXMXMXMXMXxXlXxXMX",
"MXMXMXMXMXMXMXMXMXMXMXMXlXCXMXcXzXMX&XX X     . Q.%.%.%.O.O.O.O.O.O.O.O.@.*.@._ .     .   ;XBXvXMXMXMXMXMXMXMXMXMXMXMXMXdXxXMXBX",
"MXMXMXMXMXMXMXMXMXMXCXxXxXxXMXzXcXzX<Xo o o o - L G G G G G G G G H G G H ! H Y O o O O O ;XMXBXCXMXMXMXMXMXMXMXMXMXxXxXxXxXBXBX",
"MXMXMXMXMXMXMXMXMXBXCXCXxXxXMXaXM b x g k d d s H.>.>.>.>.>.2.2.2.2.2.2.2.2.2.$.a i d j h v b N jXMXBXMXBXBXMXMXMXMXxXxXxXxXBXMX",
"MXMXMXMXMXMXMXMXCXCXBXMXMXMXMXlX. O q Q. .@.@./ Y.C.C.C.C.C.C.C.C.C.C.C.S.S.C.T./ { %.&.Q.q .   aXMXMXMXBXBXMXcXCXcXMXMXMXMXMXMX",
"MXMXMXMXMXMXMXMXxXCXMXMXCXjXlX8X2 - r ' ~ W W E y.e.e.e.e.e.w.w.w.l.l.c.c.c.c.n.E W K ^ =.r - 1 7XiXaXvXBXMXBXxXxXCXMXMXMXMXMXMX",
"MXMXMXMXMXMXMXMXMXbXCXvXMXM   1 z U ( P.B.B.j.6.e.i.i.i.i.r.w.w.l.l.l.l.k.x.c.e.0.p.E.R.U.#.I c 1 . M BXMXBXbXbXMXMXMXMXxXxXxXxX",
"MXMXMXMXMXMXMXMXbXBXMXMXBXb o - U D Q a.n.j.:.n.i.r.i.i.r.r.w.w.l.l.l.l.l.l.l.x.p.u.p.E.4.Q V I - o b MXBXMXBXbXMXMXMXMXMXxXxXxX",
"MXMXMXMXMXMXMXMXBXMXyX@X;Xv , u ( Q 5.j.M.W._.`.V.w.w.w.w.w.r.r.c.l.l.l.l.l.l.h.`.`.W.E.9.5.;.( r 9 v ;X-XpXBXbXMXMXMXMXMXMXMXMX",
"MXMXMXMXMXMXMXMXMXMX@X+ O j !.*.P.a.j.D.P.,X0X4XT.k.l.w.w.w.r.i.c.c.l.l.l.l.z.f.4X0X|.Y.A.9.8.L.+.Q.l o   :XbXMXMXMXMXMXMXMXMXMX",
"MXMXMXMXMXMXMXMXvXMX:X. O j &.J f.j.B.P.I.>XfXwXI.d.x.l.w.w.r.i.p.i.w.w.k.6.d.I.9XgX>X$.4.n.S.u.^ | j O . *XBXbXMXMXMXMXMXMXMXMX",
"MXMXMXMXMXMXMXMXvXMX-X  O k %.H B.n.(.3X>X9XcXwX5X2X).v.w.w.r.i.p.i.w.w.x.).2X3XfXgX9X>X|.^.9.V.^ ' d o . =XMXbXMXMXxXMXMXMXMXMX",
"MXMXMXMXMXMXMXMXCXBX$X  o d ' R n.:. XrXfXcXcXcXrXrX2Xd.w.w.i.i.i.i.w.r.N.2XrXfXcXgXgXMXeX Xn.A.W [ i .   =XMXvXBXMXxXxXMXMXMXMX",
"MXMXMXMXMXMXMXMXlXvXXX  - a ~ E n.d.{.9XzXzXcXcXhXwX,X-.Y.p.i.i.i.i.V.Y.I.,XwXhXgXcXbXzXfX{.M.C.E ~ a O + OXMXBXMXMXxXxXMXMXMXMX",
"MXMXMXMXMXMXMXlX* o q } Y H.R.y.r.4.[.fXzXMXgXwX3 o O ; < S E.r.e.E.R > : + @ 3 fXcXMXcXgX].B.c.n.Y.H.Y o.2 . & iXMXxXMXMXMXMXMX",
"MXMXMXMXMXMXMXlX@ . e *.H 1.C.t.w.4.[.fXcXBXzXwX1   X o ; C R.e.e.R.Y -       @ aXcXMXzXfX].u.c.x.m.J.G ..9 o & iXMXxXMXMXMXMXMX",
"MXMXMXMXMXMXMXlX@ . e *.H 1.C.r.w.8.[.eXcXMXBXiX%   = . - U M.7.9.T.Y - X = = # dXxXMXcXeX'.j.k.k.m.J.G ..9 o & iXMXxXMXMXMXMXMX",
"MXMXMXMXMXMXMXlX* o 0 O.H 1.C.r.w.8._.qXfXBXzXsX*   . o ; P B.g.g.T.U ; o     # iXcXcXfXqX'.s.z.g.m.J.G ..9 o & iXMXxXMXMXMXMXMX",
"MXMXMXMXMXMXMXiX% o 0 %.H 1.C.w.l.g.(.6XqXwXwXsXO O O ; 6 R s.g.g.B.R 6 ; - O O gXfXeXqX6X).:.v.g.m.J.J ..9 o & iXMXBXMXMXMXMXMX",
"MXMXMXMXMXMXMXlX% o w %.H 1.C.e.q.z.F.)././.].].] I U P D s.g.g.g.j.f.D T ] ] ] {.{.}.`.(.D.6.7.7.m.J.J ..9 o * iXMXBXMXMXMXMXMX",
"MXMXMXMXMXMXMXiX% o w %.! 1.Z.e.l.z.s.s.a.d.u.K.R.R.C.n.x.b.z.g.g.g.G.V.E.E.E.W.u.u.u.9.e.c.z.q.7.m.J.J | 9 . % iXMXBXBXMXMXMXMX",
"MXMXMXMXMXMXMXlX% o w %.! 1.Z.e.v.g.6.b.x.c.r.r.t.t.t.t.q.l.z.z.k.k.l.w.w.r.r.i.i.i.r.c.l.w.k.v.7.m.2.J ' 9 . % iXMXBXBXMXMXMXMX",
"MXMXMXMXMXMXMXiX$ o w %.! 1.Z.w.k.k.k.k.k.q.w.t.w.w.w.w.w.w.l.l.l.l.l.l.w.w.w.w.w.t.w.w.w.w.l.k.q.n.1.! ' 9 . $ iXMXcXMXBXBXBXBX",
"MXMXMXMXMXMXMXiX% o w %.! 1.Z.r.l.l.l.w.w.w.w.w.w.w.w.w.w.w.w.w.l.l.l.l.l.w.w.w.q.q.w.w.l.w.l.l.q.n.1.! ' 9 o $ iXMXcXMXBXBXBXBX",
"MXMXMXMXMXMXMXlX% o w %.! 1.Z.r.l.l.l.w.w.w.w.w.w.w.w.w.w.w.w.w.l.l.l.l.l.w.w.w.q.q.w.w.w.w.l.k.k.V.1.! ' 9 . $ iXMXcXBXBXBXBXBX",
"MXMXMXMXMXMXMXlX% o w %.! 1.Z.r.l.l.l.w.w.w.w.w.w.w.w.w.w.w.w.w.l.l.l.l.l.w.w.w.q.q.w.w.w.w.l.l.k.A.1.! ' 9 . $ iXMXcXBXBXBXBXBX",
"MXMXMXMXMXMXMXlX$ o e *.! 3.Z.r.w.w.w.w.w.w.w.w.w.w.w.w.w.w.w.w.w.w.l.l.l.l.l.l.w.w.w.w.l.l.l.l.x.V.1.S ' 9 . $ aXMXcXMXMXMXBXBX",
"MXMXMXMXMXMXMXlX@ . e =.! 3.Z.r.w.w.w.w.w.w.w.w.w.w.w.w.w.w.w.w.w.w.l.l.l.l.l.l.w.w.w.w.l.l.l.x.c.V.1.S ' 9 . $ aXMXcXMXMXMXMXMX",
"MXMXMXMXMXMXMXlX$ o e *.! 1.Z.r.w.w.w.w.w.w.w.w.w.w.w.w.w.w.w.w.w.w.l.l.l.l.l.l.w.w.w.w.l.l.l.l.c.A.1.S ' 9 . $ iXMXBXMXMXBXBXBX",
"MXMXMXMXMXMXMXlX5 o q } Y H.Y.y.e.w.w.e.x.n.B.m.e.w.w.w.w.w.l.l.l.l.l.l.l.l.l.x.n.B.n.h.x.e.w.k.n.T.H.T o.q . $ iXMXBXMXBXBXBXBX",
"MXMXMXMXMXMXMXMXvXBX#Xo - s / F h.e.e.x.T.B 6 8 B.q.q.q.q.q.q.q.q.l.l.k.q.q.q.8.8 6 B R.n.k.w.x.Q ~ s - o oXcXvXBXMXBXBXBXBXBXBX",
"MXMXMXMXMXMXMXMXvXBX*X  o d @.W n.w.e.n.L.y ; < P.M.M.M.M.M.M.M.N.N.N.M.M.M.M.P.6 ; y P.n.e.w.9.W ' f o . &XMXvXBXBXBXBXMXBXBXBX",
"MXMXMXMXMXMXMXMXbXBX$X  o k %.K e.w.e.h.M.V y p ` [ [ [ [ [ ` ` ` ` ` ` ` ` ` ` p y D M.e.q.w.y.^ ' k o   &XMXCXMXMXMXMXMXMXxXxX",
"MXMXMXMXMXMXMXBXbXbX$X  O k  .! y.w.k.V.B.M.L.U.> - - - - - - - O O O O - - - ; ~.P.B.h.k.q.e.m.^ | k o . &XBXbXMXMXMXMXMXMXxXxX",
"MXMXMXMXMXMXMXMXbXbX=XX o g Q.#.4.S.S.V.V.V.n.P.> - - - - O - - - - - - - - - > P.n.x.k.c.c.V.L.+.Q.l o   +XbXbXBXMXMXMXMXMXMXMX",
"MXMXMXMXMXMXMXMXbXbXtX.X<Xv , r W ;.8.V.x.l.l.B.~ [ [ [ ` ` ` ) ) ) ) I ) ) ) T B.e.q.q.c.8.;.^ r 9 n ;X@XpXbXbXMXMXMXMXMXMXMXMX",
"MXMXMXMXMXMXMXMXBXMXMXvXBXn o ; C S ;.x.l.w.l.x.B.M.N.M.M.M.M.M.N.N.N.N.D.D.D.A.q.w.w.e.V.;.D C - o n MXvXMXMXxXMXMXMXMXMXMXMXMX",
"MXMXMXMXMXMXMXMXMXMXvXkXkXN o 2 } Y W 4.n.V.n.h.k.q.q.q.q.q.q.q.q.q.q.q.q.q.q.q.q.e.e.m.L.^ C } 2 o b kXvXBXMXMXMXMXMXMXMXMXMXMX",
"MXMXMXMXMXMXMXMXMXMXBXBXBXvXzX8X2 ; r ] ! W W E h.q.e.e.k.k.x.x.k.k.k.k.x.x.x.x.E E F K +.u ; t wXaXvXMXBXMXMXMXMXMXMXMXMXMXMXMX",
"MXMXMXMXMXMXMXMXMXMXMXMXMXBXBXiX+ . , Q. .*.@.#.Y.n.V.V.V.V.C.C.V.V.V.V.C.C.C.T.~ #.O.| Q., O + aXlXvXMXMXMXMXMXMXMXMXMXMXMXMXMX",
"MXMXMXMXMXMXMXMXMXMXMXMXMXMXMXlXm b v g k k d s $.<.<.<.,.,.3.3.,.,.,.,.3.3.3.H.a d d k h x b b zXCXvXMXMXMXMXMXMXMXMXMXMXMXMXMX",
"MXMXMXMXMXMXMXMXMXMXMXMXMXMXMXvXvXvX1Xo o o o - U A A A A A A A A A A A A A A Y - o o o o oXcXzXMXMXMXMXBXMXMXMXMXMXMXMXMXMXMXMX",
"MXMXMXMXMXMXMXMXMXMXMXMXMXMXMXMXBXvX*X        o X.%.%.%.%.%.%.%.%.%.%.%.%.%.%.X.O . . .   ;XcXzXBXMXMXMXMXMXMXMXMXMXMXMXMXMXMXMX",
"MXMXMXMXMXMXMXMXMXMXMXMXMXMXMXMXBXMXuX$X%X%X=X;Xq 0 0 0 0 0 0 0 0 0 0 0 0 0 0 q #X*X*X&X&XpXBXMXBXMXMXMXMXMXMXMXMXMXMXMXMXMXMXMX",
"MXMXMXMXMXMXMXMXMXMXMXMXMXMXMXMXxXbXbXbXbXBXMXMX. . . . . . . . . . . . . . . . cXBXBXbXbXMXMXMXBXMXMXMXMXMXMXMXMXMXMXMXMXMXMXMX",
"MXMXMXMXMXMXMXMXMXMXMXMXMXMXMXMXMXMXbXbXZXbXvXvX% $ $ $ $ $ $ $ $ $ $ $ $ $ $ $ zXzXxXxXbXbXMXbXMXMXMXMXMXMXMXMXMXMXMXMXMXMXMXMX",
"MXMXMXMXMXMXMXMXMXMXMXMXMXMXCXxXMXMXBXBXMXMXMXMXiXiXiXiXiXiXiXiXiXiXiXiXiXiXiXiXMXMXBXBXBXBXBXBXMXMXMXMXMXMXMXMXMXMXMXMXMXMXcXlX",
"MXMXMXMXMXMXMXMXMXMXMXMXMXMXvXvXMXMXMXMXMXMXMXMXMXMXMXMXMXMXMXMXMXMXMXMXMXMXMXMXMXMXBXBXBXBXBXBXMXMXMXMXMXMXMXMXMXMXMXMXMXBXcXcX",
"MXMXMXMXMXMXMXMXMXMXMXMXCXBXBXBXMXMXMXMXMXMXMXMXMXMXMXMXMXMXMXMXvXvXvXvXBXBXBXBXBXBXBXBXBXBXBXBXMXMXMXMXBXBXBXBXMXMXMXBXcXcXBXMX",
"MXMXMXMXMXMXMXMXMXMXMXMXxXCXMXMXMXMXMXMXMXMXMXMXMXMXMXMXMXMXMXMXMXMXMXMXMXMXMXMXBXBXBXBXBXBXBXBXMXMXMXMXBXBXBXBXMXMXMXBXlXcXBXMX",
"MXMXMXMXMXMXMXMXMXMXCXbXMXMXMXMXMXMXMXMXMXMXMXMXMXMXMXMXMXMXMXMXMXMXMXMXMXMXMXMXMXMXMXMXMXMXMXMXMXMXMXMXMXMXMXMXMXMXBXcXcXxXMXBX",
"MXMXMXMXMXMXMXMXMXCXbXbXMXMXMXMXMXMXMXMXMXMXMXMXMXMXMXMXMXMXMXMXMXMXMXMXMXMXMXMXMXMXMXMXMXMXMXMXMXMXMXMXMXMXMXMXMXBXcXcXxXBXBXBX",
"MXMXMXMXMXMXMXMXCXCXbXBXMXMXMXMXMXMXMXMXMXMXMXMXMXMXMXMXMXMXMXMXMXMXMXMXMXMXMXMXMXMXMXMXMXMXMXMXMXMXMXMXMXMXMXMXBXcXcXMXBXBXBXBX",
"MXMXMXMXMXMXMXMXCXCXBXMXMXMXMXMXMXMXMXMXMXMXMXMXMXMXMXMXMXMXMXMXMXMXMXMXMXMXMXMXMXMXMXMXMXMXMXMXMXMXMXMXMXMXMXMXcXcXMXMXBXBXBXBX"
};
