/* XPM */
static char *_cf2bc1239b6486b802871232d8468d2[] = {
/* columns rows colors chars-per-pixel */
"64 64 238 2 ",
"   c #010300",
".  c #000B00",
"X  c #02040C",
"o  c #0B0703",
"O  c #011300",
"+  c #001B00",
"@  c #0C1D00",
"#  c #0C1308",
"$  c #0E1314",
"%  c #111415",
"&  c #141915",
"*  c #15181B",
"=  c #171918",
"-  c #080813",
";  c #0A2604",
":  c #132C0B",
">  c #162904",
",  c #1A3B0C",
"<  c #15380B",
"1  c #192818",
"2  c #1B3715",
"3  c #1D2223",
"4  c #262625",
"5  c #263A13",
"6  c #144203",
"7  c #15420A",
"8  c #1B4705",
"9  c #1A4510",
"0  c #254906",
"q  c #354C00",
"w  c #374B00",
"e  c #26550A",
"r  c #3C5101",
"t  c #3D5C00",
"y  c #234419",
"u  c #376D1B",
"i  c #3A7418",
"p  c #38692B",
"a  c #3C6734",
"s  c #3D752C",
"d  c #405500",
"f  c #445C02",
"g  c #4A561B",
"h  c #4A6402",
"j  c #576D0F",
"k  c #687B12",
"l  c #495C3A",
"z  c #4E5B29",
"x  c #466538",
"c  c #506D38",
"v  c #687B27",
"b  c #4E5742",
"n  c #555A48",
"m  c #585C59",
"M  c #635F57",
"N  c #546446",
"B  c #5C6155",
"V  c #4E6641",
"C  c #64665A",
"Z  c #5A5B66",
"A  c #686667",
"S  c #569915",
"D  c #56971B",
"F  c #579A1B",
"G  c #599B1C",
"H  c #59961A",
"J  c #53950E",
"K  c #7F9D0E",
"L  c #6A8613",
"P  c #728B13",
"I  c #679119",
"U  c #7B9711",
"Y  c #6A8403",
"T  c #5AA306",
"R  c #57A419",
"E  c #4FA319",
"W  c #6FB30F",
"Q  c #7EBB09",
"!  c #6AAA18",
"~  c #72AE11",
"^  c #6CB116",
"/  c #7DBB1D",
"(  c #7CBB18",
")  c #62A60B",
"_  c #528D25",
"`  c #5A932C",
"'  c #599B26",
"]  c #598B3C",
"[  c #5F9C3A",
"{  c #589738",
"}  c #6D8529",
"|  c #718829",
" . c #669D28",
".. c #758833",
"X. c #629C3B",
"o. c #719F3D",
"O. c #5DA528",
"+. c #55A539",
"@. c #64A727",
"#. c #7BB926",
"$. c #62A03E",
"%. c #6BA539",
"&. c #7BB634",
"*. c #70A82D",
"=. c #5E9844",
"-. c #5E8E4A",
";. c #619E42",
":. c #67974A",
">. c #689A54",
",. c #70985B",
"<. c #6E8E4D",
"1. c #5AA545",
"2. c #64A143",
"3. c #69A546",
"4. c #66A34A",
"5. c #6DA150",
"6. c #77A367",
"7. c #709B64",
"8. c #98BB05",
"9. c #85BA1F",
"0. c #9CBD15",
"q. c #95B517",
"w. c #889E33",
"e. c #98BB26",
"r. c #91B531",
"t. c #A1BE30",
"y. c #8BC30D",
"u. c #9DC402",
"i. c #9FC804",
"p. c #9DC30C",
"a. c #9CCC0D",
"s. c #93C408",
"d. c #8DC718",
"f. c #93C513",
"g. c #9EC514",
"h. c #96C912",
"j. c #9ECC15",
"k. c #9DC31C",
"l. c #98CA1A",
"z. c #97D11B",
"x. c #A1C603",
"c. c #A2C903",
"v. c #A2C50B",
"b. c #A4CB0B",
"n. c #A8CA06",
"m. c #A9D106",
"M. c #A2C414",
"N. c #A3CB14",
"B. c #AACD12",
"V. c #A3C41C",
"C. c #A3CC1A",
"Z. c #AAC91C",
"A. c #ABD21B",
"S. c #8DC727",
"D. c #9BC521",
"F. c #92CB25",
"G. c #97CA28",
"H. c #94CE35",
"J. c #A2C324",
"K. c #A4C42B",
"L. c #A9C62D",
"P. c #AACA2A",
"I. c #A8C924",
"U. c #AAD326",
"Y. c #AECC35",
"T. c #A4C436",
"R. c #B1CC3A",
"E. c #B5DA38",
"W. c #B3D52D",
"Q. c #A4BB4A",
"!. c #81A466",
"~. c #98CE45",
"^. c #ACC942",
"/. c #B5D446",
"(. c #BAD458",
"). c #B0CA51",
"_. c #BBD363",
"`. c #BCD468",
"'. c #BBD566",
"]. c #BED371",
"[. c #C2DE58",
"{. c #C1DC41",
"}. c #C6E258",
"|. c #C2DB68",
" X c #C5E367",
".X c #D9F575",
"XX c #D7F370",
"oX c #9D9998",
"OX c #A29999",
"+X c #9BA797",
"@X c #A7A89B",
"#X c #A59EA1",
"$X c #9FA3A6",
"%X c #AAA5A6",
"&X c #ABA5AA",
"*X c #A8A9A5",
"=X c #B1ACA5",
"-X c #B2B4A5",
";X c #B0A8B1",
":X c #D4E587",
">X c #DDF287",
",X c #D6E799",
"<X c #E1F49E",
"1X c #FBFFAB",
"2X c #FDFFBB",
"3X c #F8FFBA",
"4X c #E8F7B4",
"5X c #DEDBDA",
"6X c #E6DDDB",
"7X c #D6E0D5",
"8X c #F4FFC4",
"9X c #FCFFC4",
"0X c #FCFFCD",
"qX c #F3FBC8",
"wX c #FCFFDB",
"eX c #FAFED7",
"rX c #E4E5DE",
"tX c #E7DDE3",
"yX c #EDEEED",
"uX c #EAE8E4",
"iX c #F4EDEB",
"pX c #EDF0EE",
"aX c #E3F1E3",
"sX c #FBFFE4",
"dX c #F3F4EC",
"fX c #F5FDED",
"gX c #FDFDEC",
"hX c #F6F8E6",
"jX c #ECEEF0",
"kX c #EFF3F5",
"lX c #F5F4F3",
"zX c #F4FBF4",
"xX c #FDFCF4",
"cX c #FBF6FB",
"vX c #F5FDFD",
"bX c #FEFEFE",
"nX c #F7F6F4",
"mX c #F5EEF9",
/* pixels */
"bXbXbXbXbXbXbXbXbXbXbXbXbXbXbXbXbXbXbXbXbXbXbXbXbXbXbXbXbXbXbXbXbXbXbXbXbXbXbXbXbXbXbXbXbXbXbXbXbXbXbXbXbXbXbXbXbXbXbXbXbXbXbXbX",
"bXbXbXbXbXbXbXbXbXbXbXbXbXbXbXbXbXbXbXbXbXbXbXbXbXbXbXbXbXbXbXbXbXbXbXbXbXbXbXbXbXbXbXbXbXbXbXbXbXbXbXbXbXbXbXbXbXbXbXbXbXbXbXbX",
"bXbXbXbXbXbXbXbXbXbXbXbXbXbXbXbXbXbXbXbXbXbXbXbXbXbXbXbXbXbXbXbXbXbXbXbXbXbXbXbXbXbXbXbXbXbXbXbXbXbXbXbXbXbXbXbXbXbXbXbXbXbXbXbX",
"bXbXbXbXbXbXbXbXbXbXbXbXbXbXbXbXbXbXbXbXbXbXbXbXbXbXbXbXbXbXbXbXbXbXbXbXbXbXbXbXbXbXbXbXbXbXbXbXbXbXbXbXbXbXbXbXbXbXbXbXbXbXbXbX",
"bXbXbXbXbXbXbXbXbXbXbXbXbXbXbXbXbXbXbXbXbXbXbXbXbXbXbXbXbXbXbXbXbXbXbXbXbXbXbXbXbXbXbXbXbXbXbXbXbXbXbXbXbXbXbXbXbXbXbXbXbXbXbXbX",
"bXbXbXbXbXbXbXbXbXbXbXbXbXbXbXbXbXbXbXbXbXbXbXbXbXbXbXbXbXbXbXbXbXbXbXbXbXbXbXbXbXbXbXbXbXbXbXbXbXbXbXbXbXbXbXbXbXbXbXbXbXbXbXbX",
"bXbXbXbXbXbXbXbXbXbXbXbXbXbXbXbXbXbXbXbXbXbXbXbXbXbXbXbXbXbXbXbXbXbXbXbXbXbXbXbXbXbXbXbXbXbXbXbXbXbXbXbXbXbXbXbXbXbXbXbXbXbXbXbX",
"bXbXbXbXbXbXbXbXbXbXbXbXbXbXbXbXbXbXbXbXbXbXbXbXyXjXjXjXjXjXjXjXjXjXjXjXjXjXjXyXvXvXbXbXbXbXbXbXbXbXbXbXbXbXbXbXbXbXbXbXbXbXbXbX",
"bXbXbXbXbXbXbXbXbXbXbXbXbXbXbXbXbXzXvXbXvXzXlXpX1 * * * * * * * * * * * * * * & pXdXkXkXvXvXvXzXvXbXbXbXbXbXbXbXbXbXbXbXbXbXbXbX",
"bXbXbXbXbXbXbXbXbXbXbXbXbXbXbXbXbXbXbXbXbXbXvXzXO . . . . . . . . . . . . . . . fXzXbXbXbXbXvXzXvXbXbXbXbXbXbXbXbXbXbXbXbXbXbXbX",
"bXbXbXbXbXbXbXbXbXbXbXbXbXbXbXbXbXbX5XoX*X*X$X+Xy 8 6 6 6 6 6 6 6 6 6 6 6 6 6 , +X@X*X%X;XrXxXxXxXbXbXbXbXbXbXbXbXbXbXbXbXbXbXbX",
"bXbXbXbXbXbXbXbXbXbXbXbXbXbXbXbXxXbX@X#         ] 3.$.[ [ [ [ [ [ [ [ [ [ [ [ :..         =XxXgXbXbXbXbXbXbXbXbXbXbXbXbXbXbXbXbX",
"bXbXbXbXbXbXbXbXbXbXbXbXbXbXbXnXxXdX-X  . . . O ` D D D F F G G G G G G G G G ` O O O #   =XbXxXnXbXbXbXbXbXbXbXbXbXbXbXbXbXbXbX",
"bXbXbXbXbXbXbXbXbXbXbXbXbXbXbXdXM n b l x x a u &./ / / / / / / / / / / / / / &.p a x c N n m A lXbXbXbXbXbXbXbXbXbXbXbXbXbXbXbX",
"bXbXbXbXbXbXbXbXbXbXbXbXbXbXbXyX#   2 ,.:.=.{ ' F.h.j.j.j.j.j.j.j.j.j.j.j.j.j.G.%.4.3.:.!.5     yXbXbXbXbXbXbXbXbXbXbXbXbXbXbXbX",
"bXbXbXbXbXbXbXbXbXbXbXbXnXdXpX7X: . 0 5. .O.R ) s.u.u.u.u.u.x.x.x.x.x.x.x.x.x.h.! O.G H o.8 O : 7XpXdXnXbXbXbXbXbXbXbXbXbXbXbXbX",
"bXbXbXbXbXbXbXbXbXbXbXiXxXC   : <.] %.~.S.S.F.z.a.u.u.u.x.v.x.x.x.x.x.x.x.x.x.v.D.S.S.S.~. ._ -.:   C xXbXxXxXbXbXbXbXbXbXbXbXbX",
"bXbXbXbXbXbXbXbXbXbXbXbXxXn . + X.D ! d.y.h.k.q.q.p.u.u.u.v.x.x.x.x.x.x.u.x.v.0.e.e.k.f.F.~ G X.+ . b hXbXxXbXbXbXbXbXbXbXbXbXbX",
"bXbXbXbXbXbXbXbXbXbX5X=X-Xn : 0 %.^ Q y.f.E. X'.'.[.W.u.v.v.x.x.x.x.x.x.u.W.}.`.].|./.f.s.Q ~ *.8 : N -X@X6XbXxXbXbXbXbXbXbXbXbX",
"bXbXbXbXbXbXbXbXnXbX#Xo   l 6.{ H.F.z.j.J..X2X0X0X2XXXK.V.M.v.x.c.x.v.M.I.XX2X0X0X2X.XD.j.a.h.S.X.6.V     OXbXnXbXbXbXbXbXbXbXbX",
"bXbXbXbXbXbXbXbXnXbX&X    a >.' S.y.f.D.T.:X8XwXxXsX<X(.^.L.M.n.n.v.I.R.).>XwXxXxXwX:Xr.V.s.s.F.O.>.x .   OXbXxXbXbXbXbXbXbXbXbX",
"bXbXbXbXbXbXbXbXdXbX&X  . p 1.' S.l.E.XX>X3XgXnXA B z r w w.V.u.v.Z.U r w g n m cXxXqX:X.XE.N.d.R 1.p .   %XbXxXbXbXbXbXbXbXbXbX",
"bXbXbXbXbXbXbXbXdXbX&X  . p 1.E F.D. X3X8XgXxXiX%     .   v J.B.u.L.k   .     o mXcXxX0X2X[.M.d.R 1.p . . %XbXxXbXbXbXbXbXbXbXbX",
"bXbXbXbXbXbXbXbXnXbX*X  O u O.T G.e.`.8XsXbXxXuX=       . v Y.8.u.L.v . .     # mXcXcXgX3X|.0.j.T @.i O . +XxXnXbXbXbXbXbXbXbXbX",
"bXbXbXbXbXbXbXyX4 . < ] ` &.G.h.A.e.`.0XsXbXxXuXo X - X . } Y.8.v.Y.v .   X   o cXbXmXgX0X|.0.b.h.F.&.` -.2 . 3 yXbXbXbXbXbXbXbX",
"bXbXbXbXbXbXbXjX* . 8 $.G / j.x.B.J.|.9XwXxXgXuXo X - X   v P.c.B.Y.v   X X . . uXbXnXwX9X XM.n.i.l.( S =., . * yXbXbXbXbXbXbXbX",
"bXbXbXbXbXbXbXjX$ . 8 3.G / j.x.b.C./..X,XqXsXdXm Z Z m c w.Z.c.B.P.w.c m m m B yXbXeX,X>X{.v.x.x.j./ S ;.7 . * yXbXbXbXbXbXbXbX",
"bXbXbXbXbXbXbXjX* . 6 $.G / j.x.n.v.0.K.r.,XwXxXxXxXxXgX3X|.v.u.c.0._.3XsXfXsXgXxXgX<XQ.L.v.x.c.x.j./ S 4.7   $ pXbXbXbXbXbXbXbX",
"bXbXbXbXbXbXbXjX* . 6 $.G / j.x.x.u.x.v.P..X2X0X0X0X0X9X1X}.x.u.c.M.[.1X3X8X8X0X8X2X.Xe.v.x.x.x.x.j./ F 4.7 . $ pXbXbXbXbXbXbXbX",
"bXbXbXbXbXbXbXjX* . 6 $.G / j.x.x.x.x.x.u.E.}._._.`.`._.[.J.u.c.m.p.L.}.|.|. X X_.(.E.v.x.x.x.x.c.j.( S 2.7 . $ pXbXbXbXbXbXbXbX",
"bXbXbXbXbXbXbXjX* . 6 $.G / j.x.x.x.x.u.u.x.x.8.8.q.q.q.0.8.u.m.n.u.0.k.k.k.g.g.0.v.B.x.x.x.x.x.c.j.( S 2.7 . $ pXbXbXbXbXbXbXbX",
"bXbXbXbXbXbXbXjX* . 6 $.G / j.x.c.x.x.x.x.u.x.c.c.n.b.B.b.x.x.c.c.x.v.v.v.u.x.c.x.c.x.x.x.x.x.x.c.j.( S 2.7 . $ pXbXbXbXbXbXbXbX",
"bXbXbXbXbXbXbXjX* . 6 $.G / j.x.i.i.i.u.c.x.x.x.c.c.c.c.c.c.c.x.c.n.c.v.c.c.c.x.x.x.x.x.x.x.x.c.x.j.( S ;.7 . % pXbXbXbXbXbXbXbX",
"bXbXbXbXbXbXbXjX* . 6 $.G / j.x.i.i.i.i.c.v.c.c.c.c.x.x.x.x.c.x.c.c.c.c.c.c.c.c.x.x.x.x.x.x.c.c.c.j.( S ;.7 . % pXbXbXbXbXbXbXbX",
"bXbXbXbXbXbXbXjX* . 6 $.G / j.x.i.i.i.i.c.v.c.c.c.c.x.x.x.x.x.x.c.c.c.c.c.c.c.c.x.x.x.x.c.c.c.c.x.j.( S ;.7 . & pXbXbXbXbXbXbXbX",
"bXbXbXbXbXbXbXjX* . 6 $.G / j.x.i.i.i.i.c.c.c.c.c.c.x.x.x.x.x.x.c.c.c.c.c.c.c.c.x.x.x.x.x.c.c.c.x.j.( S ;.7 . & pXbXbXbXbXbXbXbX",
"bXbXbXbXbXbXbXjX* . 6 $.G / j.x.i.i.i.i.c.c.c.c.c.c.c.c.c.c.c.c.c.c.c.c.x.x.x.x.x.x.x.x.x.x.x.x.x.a.( S X.6 . & pXbXbXbXbXbXbXbX",
"bXbXbXbXbXbXbXjX* . 6 $.G / j.x.i.i.i.i.c.c.c.c.c.c.c.c.c.c.u.u.x.x.x.x.x.x.x.x.x.x.x.x.x.x.x.x.x.j.( S 2.6 . & pXbXbXbXbXbXbXbX",
"bXbXbXbXbXbXbXjX* . 6 $.G / j.x.i.i.i.i.c.c.c.c.c.c.c.c.c.c.c.n.n.b.b.b.c.x.x.x.x.x.x.x.x.x.x.x.x.j.( S 2.7 . & yXbXbXbXbXbXbXbX",
"bXbXbXbXbXbXbXyX= . , >.` &.G.h.a.x.x.v.M.V.D.D.K.J.N.v.c.c.c.b.q.q.q.q.J.M.v.x.x.c.M.V.V.V.v.c.h.F.#.' >., . & yXbXbXbXbXbXbXbX",
"bXbXbXbXbXbXbXbXhXgX@X. + u O.T j.u.8.g.Y.h @ > ; + t U.u.i.u.k.> @ @ > . U V.x.c.B.Y @ @ P W.p.T O.i + . *XxXfXbXbXbXbXbXbXbXbX",
"bXbXbXbXbXbXbXbXhXxX%X  O a 1.E y.u.M.Y.(.q   . . O 0 /.U.U.U.^.O . . O O } (.P.C.Y.L . . k I.f.E +.p .   &XbXfXbXbXbXbXbXbXbXbX",
"bXbXbXbXbXbXbXbXnXbX&X  O a 1.R y.a.q.L } f w q f q h | } } } } r d d r w v <.} | | j d f K A.l.F 1.a .   %XbXnXbXbXbXbXbXbXbXbX",
"bXbXbXbXbXbXbXbXnXbX&X  . x 4.G d.U.L + O ..).T.Y./.| O . . . . Q.^.R.t.`.w   . O O r ).T.P.j.F.' >.x .   %XbXnXbXbXbXbXbXbXbXbX",
"bXbXbXbXbXbXbXbXbXbX;Xo   l 6.%.S.H.I . O L L.8.p.P.L O . . . O T.V.M.V.t.w . . . . f T.d.l.z.H.3.7.l .   =XbXnXbXbXbXbXbXbXbXbX",
"bXbXbXbXbXbXbXbXcXbXtXOX@XN < 6 @.#. .H I e.Z.8.i.C.e.L | | | P V.c.c.v.I.q.L } | k K D.l.y.W @.e < l @X=X6XbXbXbXbXbXbXbXbXbXbX",
"bXbXbXbXbXbXbXbXbXbXbXbXxXB . O { G ! E.U.B.n.n.p.N.Z.U.Z.Z.C.N.b.b.c.c.i.B.A.A.W.I.N.j.z.W J _ + . n bXxXbXbXbXbXbXbXbXbXbXbXbX",
"bXbXbXbXbXbXbXbXbXbXxXiXbXA . 2 c { @.H.y.f.h.h.g.p.8.u.u.u.u.u.u.x.x.c.u.u.m.u.s.f.f.d.H.@._ ] : . C bXxXbXbXbXbXbXbXbXbXbXbXbX",
"bXbXbXbXbXbXbXbXbXbXbXbXcXlXjX7X: ; e $.@.R R ^ h.i.x.c.x.x.x.x.x.x.c.c.x.x.x.a.) R R G X.e + ; aXdXbXbXbXbXbXbXbXbXbXbXbXbXbXbX",
"bXbXbXbXbXbXbXbXbXbXbXbXbXbXbXpX. . < ,.=.{ +.@.F.j.j.C.C.C.C.C.j.j.j.j.C.C.C.G.O.+.{ [ ,.<   . lXnXbXbXbXbXbXbXbXbXbXbXbXbXbXbX",
"bXbXbXbXbXbXbXbXbXbXbXbXbXbXbXdXC b l x x p p i #.( / 9.9./ / / / / #.#./ #.#.&.s s p x x l n m bXbXbXbXbXbXbXbXbXbXbXbXbXbXbXbX",
"bXbXbXbXbXbXbXbXbXbXbXbXbXbXbXnXxXxX@X. . . . + ` S F G G G G G G G G F F D D ` O . .     @XgXxXbXbXbXbXbXbXbXbXbXbXbXbXbXbXbXbX",
"bXbXbXbXbXbXbXbXbXbXbXbXbXbXbXbXxXbX=Xo       . >.4.3.[ 2.2.2.2.2.2.2.X.X.[ [ :..         @XxXgXbXbXbXbXbXbXbXbXbXbXbXbXbXbXbXbX",
"bXbXbXbXbXbXbXbXbXbXbXbXbXbXbXbXxXbX6XoX%X%X%X+Xy 9 7 7 7 7 7 7 7 7 6 6 6 6 6 , @X@X%X%X&XuXxXbXbXbXbXbXbXbXbXbXbXbXbXbXbXbXbXbX",
"bXbXbXbXbXbXbXbXbXbXbXbXbXbXbXbXbXbXbXxXbXbXxXxX# . . . . . . .     . . . . . . gXgXbXbXcXbXbXbXbXbXbXbXbXbXbXbXbXbXbXbXbXbXbXbX",
"bXbXbXbXbXbXbXbXbXbXbXbXbXbXbXbXbXbXbXnXnXdXhXdX4 % % 3 $ $ $ $ $ $ $ % * * * = hXhXnXnXcXbXbXzXbXbXbXbXbXbXbXbXbXbXbXbXbXbXbXbX",
"bXbXbXbXbXbXbXbXbXbXbXbXbXbXbXbXbXbXbXbXbXbXbXbXdXdXpXpXyXyXyXyXyXyXpXpXpXpXyXyXbXbXbXbXbXbXnXlXbXbXbXbXbXbXbXbXbXbXbXbXbXbXbXbX",
"bXbXbXbXbXbXbXbXbXbXbXbXbXbXbXbXbXbXbXbXbXbXbXbXbXbXbXbXbXbXbXbXbXbXbXbXbXbXbXbXbXbXbXbXbXbXnXnXvXbXbXbXbXbXbXbXbXbXbXbXbXbXbXbX",
"bXbXbXbXbXbXbXbXbXbXbXbXbXbXbXbXbXbXbXbXbXbXbXbXbXbXbXbXbXbXbXbXbXbXbXbXbXbXbXbXbXbXbXbXnXnXbXbXbXbXbXbXbXbXbXbXbXbXbXbXbXbXbXbX",
"bXbXbXbXbXbXbXbXbXbXbXbXbXbXbXbXbXbXbXbXbXbXbXbXbXbXbXbXbXxXbXbXbXbXbXbXbXbXbXbXbXbXbXbXlXnXbXbXbXbXbXbXbXbXbXbXbXbXbXbXbXbXbXbX",
"bXbXbXbXbXbXbXbXbXbXbXbXbXbXbXbXbXbXbXbXbXbXbXbXbXbXbXbXbXbXbXbXbXbXbXbXbXbXbXbXbXbXbXbXbXbXbXbXbXbXbXbXbXbXbXbXbXbXbXbXbXbXbXbX",
"bXbXbXbXbXbXbXbXbXbXbXbXbXbXbXbXbXbXbXbXbXbXbXbXbXbXbXbXbXbXbXbXbXbXbXbXbXbXbXbXbXbXnXxXbXbXbXbXbXbXbXbXbXbXbXbXbXbXbXbXbXbXbXbX",
"bXbXbXbXbXbXbXbXbXbXbXbXbXbXbXbXbXbXbXbXbXbXbXbXbXbXbXbXbXbXbXbXbXbXbXbXbXbXbXbXbXnXnXbXbXbXbXbXbXbXbXbXbXbXbXbXbXbXbXbXbXbXbXbX",
"bXbXbXbXbXbXbXbXbXbXbXbXbXbXbXbXbXbXbXbXbXbXbXbXbXbXbXbXbXbXbXbXbXbXbXbXbXbXbXbXnXnXbXbXbXbXbXbXbXbXbXbXbXbXbXbXbXbXbXbXbXbXbXbX"
};
